<?xml version="1.0" standalone="no"?>
<!DOCTYPE svg PUBLIC "-//W3C//DTD SVG 20010904//EN"
 "http://www.w3.org/TR/2001/REC-SVG-20010904/DTD/svg10.dtd">
<svg version="1.0" xmlns="http://www.w3.org/2000/svg"
 width="936.000000pt" height="936.000000pt" viewBox="0 0 936.000000 936.000000"
 preserveAspectRatio="xMidYMid meet">
<metadata>
Created by potrace 1.14, written by Peter Selinger 2001-2017
</metadata>
<g transform="translate(0.000000,936.000000) scale(0.100000,-0.100000)"
fill="#000000" stroke="none">
<path d="M4640 8758 c-11 -24 -20 -51 -20 -60 0 -10 -4 -18 -8 -18 -5 0 -9 -6
-9 -12 -2 -21 -27 -82 -38 -90 -5 -4 -6 -8 -2 -8 4 0 -8 -25 -28 -55 -19 -31
-35 -60 -35 -65 0 -6 -5 -10 -10 -10 -6 0 -14 -8 -17 -17 -18 -50 -175 -219
-293 -316 -56 -47 -235 -143 -277 -150 -10 -1 -22 -5 -28 -9 -16 -10 -84 -20
-153 -23 -35 -2 -66 -6 -69 -9 -3 -3 -11 -2 -17 4 -28 23 -41 -11 -49 -137 -1
-13 -5 -23 -9 -23 -5 0 -8 -10 -9 -22 0 -33 -30 -100 -66 -151 -32 -46 -107
-97 -193 -131 -46 -18 -54 -21 -126 -35 -67 -13 -182 -3 -224 19 -9 5 -28 11
-41 14 -13 2 -31 6 -39 8 -12 2 -14 -7 -12 -46 6 -88 7 -306 2 -306 -3 0 -6
-19 -7 -42 -2 -39 -8 -79 -13 -85 -2 -2 -3 -6 -4 -10 -9 -40 -101 -174 -162
-238 -66 -68 -196 -167 -224 -170 -3 -1 -21 -11 -40 -23 -19 -12 -38 -22 -42
-22 -5 0 -8 -7 -8 -17 0 -9 3 -13 6 -10 4 4 19 -2 33 -12 14 -10 29 -19 34
-20 19 -2 183 -87 190 -98 4 -7 13 -13 20 -13 24 -1 99 -96 129 -163 34 -80
44 -144 28 -191 -22 -68 -158 -182 -240 -201 -3 -1 -25 -7 -49 -14 -48 -14
-171 -13 -211 2 -150 56 -174 73 -334 245 -47 50 -61 60 -72 51 -8 -6 -14 -16
-14 -21 0 -18 -71 -158 -81 -158 -6 0 -8 -4 -5 -8 3 -5 -13 -26 -34 -47 -22
-22 -40 -35 -40 -30 0 6 -3 6 -8 0 -6 -9 -85 -48 -102 -51 -3 0 -12 -3 -20 -7
-8 -3 -28 -9 -45 -13 -16 -4 -37 -9 -45 -12 -8 -2 -48 -3 -88 -3 l-73 1 4 -94
c2 -51 7 -99 11 -105 4 -6 3 -11 -3 -11 -7 0 -7 -8 -1 -25 5 -14 6 -25 2 -25
-4 0 -8 -27 -8 -60 -1 -33 -9 -82 -18 -108 -23 -64 -78 -176 -88 -180 -4 -2
-6 -7 -3 -12 2 -4 -6 -19 -19 -33 -13 -14 -22 -28 -19 -30 4 -4 -118 -130
-148 -152 -101 -75 -104 -80 -62 -88 35 -7 113 -27 133 -35 8 -3 17 -6 20 -7
117 -41 249 -145 292 -229 22 -44 56 -137 65 -176 3 -14 6 -32 8 -40 8 -35 19
-116 17 -122 -1 -5 1 -8 6 -8 6 0 8 -154 2 -170 -2 -7 -8 -37 -15 -88 -8 -51
-12 -51 142 2 126 44 221 68 233 61 4 -3 10 -1 12 4 7 20 203 37 257 21 17 -4
50 -10 73 -11 24 -1 48 -5 53 -8 6 -3 21 -7 35 -9 67 -9 158 -55 216 -109 35
-32 114 -141 114 -157 0 -3 5 -17 12 -33 12 -31 12 -29 27 -93 9 -43 6 -163
-5 -182 -3 -5 -7 -20 -10 -34 -10 -55 -71 -151 -139 -219 -64 -64 -77 -73
-145 -93 -76 -22 -182 -25 -255 -7 -51 12 -145 50 -145 57 0 5 -5 8 -11 8 -6
0 -46 28 -88 63 -83 69 -108 87 -97 69 3 -6 2 -13 -4 -17 -7 -4 -7 -12 0 -24
5 -10 7 -21 4 -24 -3 -3 -8 -25 -10 -49 -8 -74 -35 -210 -56 -283 -11 -38 -22
-80 -25 -92 -3 -13 -9 -23 -14 -23 -5 0 -9 -7 -9 -16 0 -58 -237 -320 -371
-409 -41 -28 -76 -52 -79 -55 -3 -3 -13 -9 -22 -15 -59 -35 -138 -91 -138 -98
0 -5 3 -6 8 -4 4 3 33 8 65 11 31 3 83 9 115 14 31 4 116 7 187 7 102 -1 148
-5 212 -23 107 -29 216 -79 280 -130 29 -23 55 -42 57 -42 3 0 18 -12 34 -28
16 -15 60 -54 97 -87 38 -33 73 -66 79 -72 6 -7 31 -35 56 -62 71 -77 82 -92
116 -158 29 -59 32 -61 51 -48 11 8 23 11 27 8 3 -3 6 -1 6 5 0 7 6 12 13 12
7 0 29 9 50 20 20 11 37 18 37 16 0 -3 26 7 57 20 32 14 78 33 103 41 25 9 56
20 70 26 14 5 31 11 38 13 8 1 21 6 30 10 9 4 26 8 37 10 11 1 31 5 45 9 49
12 207 40 280 49 19 3 62 8 95 11 33 4 74 8 91 10 36 4 40 2 84 -55 38 -50
146 -166 199 -214 18 -17 46 -42 61 -56 15 -14 49 -44 76 -67 27 -23 63 -53
79 -68 17 -14 49 -40 73 -57 23 -17 42 -35 42 -40 0 -4 6 -8 14 -8 8 0 16 -3
18 -8 4 -9 135 -112 143 -112 3 0 14 -8 24 -18 32 -28 50 -42 55 -42 3 0 14
-6 23 -14 50 -41 118 -89 139 -98 13 -6 24 -15 24 -20 0 -4 6 -8 14 -8 8 0 16
-4 18 -9 2 -5 32 -27 68 -50 36 -22 70 -45 77 -51 13 -11 43 -3 43 11 0 5 4 9
9 9 12 0 165 101 169 112 2 4 10 8 18 8 8 0 14 5 14 10 0 6 4 10 10 10 5 0 18
6 27 14 42 34 114 86 119 86 3 0 11 6 18 13 27 25 66 57 72 57 5 0 287 223
315 250 8 8 42 38 75 66 107 94 233 224 312 323 20 26 30 27 152 15 110 -10
346 -49 413 -69 26 -8 49 -14 52 -15 8 -1 39 -11 70 -23 17 -7 33 -12 38 -13
4 -1 9 -3 12 -4 3 -1 10 -4 15 -5 6 -1 12 -4 15 -5 3 -1 8 -3 13 -4 4 -1 24
-10 46 -19 21 -9 40 -17 42 -17 6 0 117 -49 147 -65 16 -8 35 -15 42 -15 13 0
31 36 27 53 -1 4 2 7 8 7 5 0 10 7 10 15 0 22 82 120 181 215 101 99 98 95
209 180 47 36 88 70 92 75 4 6 8 6 8 1 0 -5 8 -2 18 6 45 38 154 74 317 103
36 6 172 7 200 1 21 -4 90 -12 183 -21 29 -3 56 -6 60 -6 27 -4 20 5 -25 36
-29 19 -56 35 -60 35 -5 0 -15 9 -23 20 -8 11 -22 20 -31 20 -10 0 -19 4 -21
8 -1 5 -30 27 -63 50 -33 22 -77 58 -98 79 -20 21 -66 67 -102 103 -36 36 -65
69 -65 74 0 5 -8 16 -18 25 -26 24 -65 88 -91 151 -30 69 -62 180 -56 191 3 4
1 10 -4 13 -5 4 -8 14 -6 24 1 9 -1 24 -5 32 -8 15 -23 154 -24 217 0 28 -2
30 -19 21 -11 -5 -33 -22 -50 -36 -16 -15 -35 -31 -41 -37 -164 -144 -452
-175 -596 -65 -45 34 -99 91 -106 113 -3 9 -9 17 -13 17 -13 0 -69 140 -79
197 -10 57 -4 198 8 198 1 0 3 8 5 18 2 9 18 47 36 83 77 152 214 242 399 259
19 2 35 5 35 5 0 12 215 17 260 5 17 -4 37 -8 45 -10 8 -2 15 -4 15 -5 0 -1
13 -4 29 -6 15 -3 96 -27 179 -54 84 -28 155 -50 158 -50 4 0 4 26 1 58 -12
103 -6 342 8 342 3 0 7 8 8 18 2 21 10 57 12 57 2 0 5 14 14 53 3 13 21 56 40
96 36 73 98 145 154 176 15 8 29 17 32 20 3 3 23 13 45 24 22 10 51 24 65 31
25 13 121 37 130 34 3 -1 16 3 29 11 l25 13 -24 19 c-13 11 -42 34 -63 51 -87
70 -130 120 -188 218 -86 143 -106 208 -113 355 -1 39 -7 77 -11 84 -5 7 -4
11 1 8 5 -4 10 33 11 83 l2 88 -72 1 c-91 1 -127 4 -127 10 0 6 -86 33 -96 30
-4 -1 -10 2 -13 7 -3 5 -23 17 -44 27 -65 30 -118 96 -181 226 -20 41 -36 70
-36 65 0 -23 -207 -224 -261 -254 -67 -37 -156 -69 -187 -66 -13 1 -25 -2 -28
-6 -2 -5 -15 -4 -28 1 -15 5 -27 5 -35 -3 -6 -6 -11 -7 -11 -1 0 5 -14 10 -31
11 -17 1 -38 8 -47 15 -13 10 -14 10 -8 0 16 -26 -135 62 -182 107 -51 47 -97
127 -81 137 5 3 7 9 4 14 -3 5 0 29 6 52 7 24 12 46 11 51 -1 4 2 7 8 7 5 0
10 7 10 15 0 17 58 117 74 127 6 3 29 22 51 42 32 29 230 136 251 136 3 0 12
6 20 14 15 15 8 22 -61 63 -80 47 -144 91 -170 115 -91 87 -120 119 -160 179
-24 36 -49 79 -56 95 -12 30 -13 32 -25 74 -4 14 -8 120 -9 235 l-3 210 -24
-3 c-12 -2 -38 -10 -57 -18 -66 -28 -161 -36 -243 -21 -58 10 -159 48 -200 74
-21 13 -38 20 -38 17 0 -20 -99 98 -105 126 -1 3 -7 19 -14 35 -27 63 -39 108
-46 179 -7 60 -20 79 -45 66 -9 -5 -20 -7 -23 -3 -4 3 -32 7 -64 9 -68 3 -98
8 -134 22 -15 6 -29 9 -32 6 -2 -3 -20 4 -38 14 -19 10 -40 17 -46 15 -7 -3
-13 0 -13 5 0 5 -15 15 -32 22 -18 7 -47 24 -65 37 -17 12 -36 23 -42 23 -6 0
-11 5 -11 10 0 6 -5 10 -10 10 -6 0 -25 12 -43 28 -44 37 -197 191 -226 227
-39 49 -139 204 -146 225 -4 11 -11 20 -16 20 -6 0 -8 4 -5 8 3 5 -1 20 -9 35
-8 15 -12 27 -10 27 2 0 -9 29 -25 64 -15 35 -26 67 -23 70 4 3 3 6 -1 6 -4 0
-16 -19 -26 -42z"/>
</g>
</svg>
