<svg width="24" height="24" viewBox="0 0 24 24" fill="none" xmlns="http://www.w3.org/2000/svg">
<path d="M24 12.14C23.9984 9.84732 23.3401 7.60306 22.1029 5.67281C20.8658 3.74256 19.1015 2.20713 17.019 1.24821C14.9365 0.289292 12.6228 -0.0529706 10.3518 0.261925C8.08087 0.57682 5.94763 1.53569 4.20459 3.02507C2.46154 4.51445 1.18163 6.47198 0.516338 8.66603C-0.148959 10.8601 -0.1718 13.1988 0.450518 15.4054C1.07284 17.612 2.31426 19.5942 4.02789 21.1173C5.74152 22.6405 7.85561 23.6408 10.12 24V15.6H7.12V12.14H10.12V9.49002C10.12 6.49002 11.92 4.82002 14.66 4.82002C15.5581 4.83304 16.4539 4.91327 17.34 5.06002V8.06002H15.83C15.5719 8.02572 15.3094 8.05012 15.062 8.13141C14.8146 8.2127 14.5888 8.34878 14.4014 8.5295C14.2139 8.71022 14.0697 8.93092 13.9794 9.17515C13.8891 9.41937 13.8552 9.68083 13.88 9.94002V12.19H17.2L16.67 15.65H13.88V24C16.7029 23.5522 19.2732 22.1116 21.1284 19.9374C22.9837 17.7632 24.0019 14.9982 24 12.14Z" fill="#FAF8F5"/>
</svg>
