<?xml version="1.0" encoding="utf-8"?>
<!-- Generator: Adobe Illustrator 26.0.3, SVG Export Plug-In . SVG Version: 6.00 Build 0)  -->
<svg fill="#000" version="1.1" id="Layer_1" xmlns="http://www.w3.org/2000/svg" xmlns:xlink="http://www.w3.org/1999/xlink" x="0px" y="0px"
	 viewBox="0 0 944 800" style="enable-background:new 0 0 944 800;" xml:space="preserve">
<style type="text/css">
	.st0{clip-path:url(#SVGID_00000013176956929894136530000016549923771918143899_);fill:#000;}
	.st1{fill:#fff;}
</style>
 <g id="NewGroup0-7">
		<g>
			<path d="M146,636.1h10.7l3.4,2.1l-3.4,2.1h-13.2C144.1,638.8,145,637.4,146,636.1L146,636.1z M160.9,628.9L160.9,628.9
				c2.6,0,5.1,0.5,7.4,1.5c3.4,1.4,6.3,3.8,8.3,6.9c1.9,2.8,3,6.1,3.2,9.6h-13c0,0,0,0,0,0h-18.2c0,0,0,0,0,0H142
				c0.1-1.6,0.4-3.1,0.8-4.6H157c0.2,0,0.4-0.1,0.5-0.1l4.9-3.1c0.3-0.2,0.4-0.5,0.4-0.8s-0.2-0.6-0.4-0.8l-4.9-3.1
				c-0.2-0.1-0.3-0.1-0.5-0.1h-9.2c0.8-0.7,1.6-1.4,2.5-2C153.3,630.1,157,628.9,160.9,628.9L160.9,628.9z M169.3,665.3
				c0.2-1.2,0.3-2.5,0.3-3.8l3.1-0.7C172,662.6,170.8,664.1,169.3,665.3L169.3,665.3z M164.8,667.6l-5.6,1.5l0-5.3l8.5-1.8
				c-0.1,1.6-0.3,3.2-0.6,4.7C166.4,667.1,165.7,667.4,164.8,667.6L164.8,667.6z M144.6,673c-0.4,0.1-0.7,0.2-1,0.4l-0.8-1.6
				c-0.7-1.4-1.2-2.8-1.7-4.3l6-1.2c0.2,2,0.6,3.9,1,5.8L144.6,673L144.6,673z M166.1,648.8c0.5,1.5,0.8,3.1,1.1,4.6l-8.5,1
				l-0.5-5.6H166.1L166.1,648.8z M176.1,652.4l-6.9,0.8c-0.3-1.5-0.6-3-1-4.4h9.3L176.1,652.4L176.1,652.4z M148.6,659
				c0-0.5,0-1,0-1.5l8.5-1l0,0.6l0,0c0.2,1.7,0.2,3.4,0.2,5.1l-8.6,1.8C148.6,662.3,148.6,660.7,148.6,659L148.6,659z M139.8,659
				c0-0.2,0-0.3,0-0.5l6.8-0.8c0,0.4,0,0.8,0,1.2c0,1.8,0.1,3.6,0.2,5.4l-6.3,1.3C140.1,663.5,139.8,661.2,139.8,659L139.8,659z
				 M149.9,671.5c-0.4-1.8-0.7-3.7-1-5.7l8.4-1.7v5.4L149.9,671.5L149.9,671.5z M159.2,661.8c0-1.6-0.1-3.2-0.2-4.9l0,0l-0.1-0.6
				l8.6-1c0.2,1.5,0.3,3,0.3,4.5c0,0,0,0.1,0,0.1L159.2,661.8L159.2,661.8z M173.6,658.8l-3.9,0.8c0-1.5-0.1-3-0.3-4.5l5.9-0.7
				L173.6,658.8L173.6,658.8z M156.4,648.8l0.5,5.8l-8.2,1c0.1-2.3,0.4-4.6,0.8-6.8H156.4L156.4,648.8z M141.7,648.8h5.8
				c-0.4,2.3-0.6,4.6-0.8,7l-6.8,0.8C140.1,654,140.7,651.3,141.7,648.8L141.7,648.8z M141.1,672.6l1,2.1c-0.1,0.1-0.1,0.2-0.2,0.3
				c-0.3,0.6-0.5,1.3-0.5,2c0,0.6,0.1,1.2,0.4,1.8l2.3,4.9l-2.4,5.8l0,0c-0.2,0.5-0.3,1-0.3,1.5c0,0.5,0.1,1,0.3,1.5
				c0.3,0.7,0.8,1.3,1.4,1.7c0.3,0.2,0.7,0.4,1,0.5c0.4,0.1,0.8,0.2,1.2,0.2c0.6,0,1.3-0.2,1.9-0.5c0,0,0.1-0.1,0.1-0.1l10.1-8
				c3.5-2.8,7.4-5,11.5-6.6c0.5-0.2,0.7-0.7,0.5-1.2c-0.2-0.5-0.7-0.7-1.2-0.5h0c-4.3,1.7-8.4,4-12,6.9l-10,7.9
				c-0.3,0.1-0.6,0.2-0.9,0.2c-0.3,0-0.6-0.1-0.8-0.2c-0.4-0.2-0.7-0.4-0.9-0.8c-0.2-0.3-0.3-0.7-0.3-1.1c0-0.3,0-0.5,0.2-0.8l0,0
				l2.5-6.2c0.1-0.2,0.1-0.5,0-0.8l-2.5-5.2c-0.2-0.3-0.2-0.7-0.2-1c0-0.5,0.2-1,0.5-1.4c0,0,0.1-0.1,0.1-0.1c0,0,0,0,0,0
				c0.1-0.1,0.3-0.3,0.4-0.4c0.2-0.1,0.4-0.3,0.7-0.3l4.4-1.2c0,0,0,0,0,0c0,0,0,0,0,0l15.9-4.2c1.1-0.3,2.2-0.7,3.1-1.3
				c0,0,0,0,0,0c2.9-1.6,5.2-4.2,6.4-7.4l4.5-11.8l3.5,0.7c2.4,0.5,4.2,2.3,4.7,4.7c0,0.3,0.2,1.4,0.3,3c0.1,1.7,0.3,3.9,0.3,5.8
				c0,1,0,2-0.1,2.8c0,0.4-0.1,0.8-0.2,1.1c-0.1,0.3-0.1,0.5-0.2,0.7c-1.5,3.3-4.4,5.9-7.8,7.1c-0.5,0.2-0.8,0.7-0.6,1.2
				c0.2,0.5,0.7,0.8,1.2,0.6c3.9-1.4,7.1-4.3,8.8-8.1c0.2-0.3,0.3-0.7,0.3-1.1c0.1-0.6,0.2-1.3,0.3-2c0.1-0.7,0.1-1.5,0.1-2.3
				c0-2.1-0.1-4.4-0.3-6.1c-0.1-1.8-0.3-3-0.3-3c0,0,0,0,0-0.1c-0.6-3.1-3.1-5.6-6.2-6.2l-1.6-0.3c0-2.7-0.6-5.3-1.6-7.7
				c-1.6-3.7-4.2-6.9-7.5-9.2c-3.3-2.2-7.3-3.6-11.7-3.6h0c-2.9,0-5.6,0.6-8.1,1.6c-3.1,1.3-5.8,3.3-7.9,5.9c0,0,0,0,0,0
				c-0.4,0.5-0.9,1.1-1.2,1.7c-1,1.5-1.8,3.1-2.4,4.8c0,0,0,0,0,0c-0.7,2.1-1.1,4.3-1.1,6.6c-1.2,3.1-1.9,6.4-2.1,9.7
				c0,0.1,0,0.3,0,0.4c0,0,0,0.1,0,0.1c0,0.4,0,0.7,0,1.1C137.9,663.7,139,668.3,141.1,672.6L141.1,672.6z"/>
			<path d="M179.9,661.5c-0.3-0.4-0.4-0.9-0.4-1.4c0-0.4,0.1-0.7,0.2-1c0.2-0.5,0.5-0.8,0.9-1.1c0.4-0.3,0.9-0.4,1.4-0.4
				c0.4,0,0.7,0.1,1,0.2c0.5,0.2,0.8,0.5,1.1,0.9c0.3,0.4,0.4,0.9,0.4,1.4c0,0.4-0.1,0.7-0.2,1c-0.2,0.5-0.5,0.8-0.9,1.1
				c-0.4,0.3-0.9,0.4-1.4,0.4c-0.4,0-0.7-0.1-1-0.2C180.5,662.2,180.1,661.9,179.9,661.5L179.9,661.5z M183.7,664.2
				c0.8-0.3,1.5-0.9,2-1.6c0.5-0.7,0.8-1.6,0.8-2.5c0-0.6-0.1-1.2-0.4-1.7c-0.3-0.8-0.9-1.5-1.6-2c-0.7-0.5-1.6-0.8-2.5-0.8
				c-0.6,0-1.2,0.1-1.7,0.4c-0.8,0.3-1.5,0.9-2,1.6c-0.5,0.7-0.8,1.6-0.8,2.5c0,0.6,0.1,1.2,0.4,1.7c0.3,0.8,0.9,1.5,1.6,2
				c0.7,0.5,1.6,0.8,2.5,0.8C182.6,664.5,183.2,664.4,183.7,664.2L183.7,664.2z"/>
			<path d="M173.8,677c0,0.5,0.4,1,1,1c0.5,0,1-0.4,1-1c0-0.5-0.4-1-1-1C174.2,676.1,173.8,676.5,173.8,677L173.8,677z"/>
		</g>
	</g>
</svg>
