<svg width="24" height="24" viewBox="0 0 24 24" fill="none" xmlns="http://www.w3.org/2000/svg">
<path d="M12 2.16C15.2 2.16 15.58 2.16 16.85 2.23C17.6119 2.2416 18.3661 2.38365 19.08 2.65C19.5981 2.84505 20.0686 3.14845 20.4601 3.53991C20.8515 3.93138 21.1549 4.40189 21.35 4.92C21.6163 5.63389 21.7584 6.38813 21.77 7.15C21.83 8.42 21.84 8.8 21.84 12C21.84 15.2 21.84 15.58 21.77 16.85C21.7584 17.6119 21.6163 18.3661 21.35 19.08C21.1549 19.5981 20.8515 20.0686 20.4601 20.4601C20.0686 20.8515 19.5981 21.1549 19.08 21.35C18.3661 21.6163 17.6119 21.7584 16.85 21.77C15.58 21.83 15.2 21.84 12 21.84C8.8 21.84 8.42 21.84 7.15 21.77C6.38813 21.7584 5.63389 21.6163 4.92 21.35C4.40189 21.1549 3.93138 20.8515 3.53991 20.4601C3.14845 20.0686 2.84505 19.5981 2.65 19.08C2.38365 18.3661 2.2416 17.6119 2.23 16.85C2.17 15.58 2.16 15.2 2.16 12C2.16 8.8 2.16 8.42 2.23 7.15C2.2416 6.38813 2.38365 5.63389 2.65 4.92C2.84505 4.40189 3.14845 3.93138 3.53991 3.53991C3.93138 3.14845 4.40189 2.84505 4.92 2.65C5.63389 2.38365 6.38813 2.2416 7.15 2.23C8.42 2.17 8.8 2.16 12 2.16ZM12 0C8.74 0 8.33 -3.05474e-07 7.05 0.0699997C6.05524 0.0900521 5.07116 0.279428 4.14 0.63C3.34064 0.934688 2.61471 1.4049 2.0098 2.0098C1.4049 2.61471 0.934688 3.34064 0.63 4.14C0.279428 5.07116 0.0900521 6.05524 0.0699997 7.05C-3.05474e-07 8.33 0 8.74 0 12C0 15.26 -3.05474e-07 15.67 0.0699997 16.95C0.0900521 17.9448 0.279428 18.9288 0.63 19.86C0.934688 20.6594 1.4049 21.3853 2.0098 21.9902C2.61471 22.5951 3.34064 23.0653 4.14 23.37C5.07116 23.7206 6.05524 23.9099 7.05 23.93C8.33 24 8.74 24 12 24C15.26 24 15.67 24 16.95 23.93C17.9448 23.9099 18.9288 23.7206 19.86 23.37C20.6594 23.0653 21.3853 22.5951 21.9902 21.9902C22.5951 21.3853 23.0653 20.6594 23.37 19.86C23.715 18.9446 23.9043 17.9779 23.93 17C24 15.67 24 15.26 24 12C24 8.74 24 8.33 23.93 7.05C23.9099 6.05524 23.7206 5.07116 23.37 4.14C23.0653 3.34064 22.5951 2.61471 21.9902 2.0098C21.3853 1.4049 20.6594 0.934688 19.86 0.63C18.9446 0.284951 17.9779 0.0956653 17 0.0699997C15.67 -3.05474e-07 15.26 0 12 0ZM12 5.84C10.7817 5.84 9.5907 6.20128 8.57769 6.87815C7.56468 7.55502 6.77514 8.51708 6.3089 9.64267C5.84267 10.7683 5.72068 12.0068 5.95836 13.2018C6.19605 14.3967 6.78273 15.4943 7.64422 16.3558C8.50571 17.2173 9.60332 17.804 10.7982 18.0416C11.9932 18.2793 13.2317 18.1573 14.3573 17.6911C15.4829 17.2249 16.445 16.4353 17.1219 15.4223C17.7987 14.4093 18.16 13.2183 18.16 12C18.16 11.1911 18.0007 10.39 17.6911 9.64267C17.3815 8.8953 16.9278 8.21623 16.3558 7.64422C15.7838 7.07221 15.1047 6.61847 14.3573 6.3089C13.61 5.99933 12.8089 5.84 12 5.84ZM12 16C11.2089 16 10.4355 15.7654 9.77772 15.3259C9.11992 14.8864 8.60723 14.2616 8.30448 13.5307C8.00173 12.7998 7.92252 11.9956 8.07686 11.2196C8.2312 10.4437 8.61216 9.73098 9.17157 9.17157C9.73098 8.61216 10.4437 8.2312 11.2196 8.07686C11.9956 7.92252 12.7998 8.00173 13.5307 8.30448C14.2616 8.60723 14.8864 9.11992 15.3259 9.77772C15.7654 10.4355 16 11.2089 16 12C16 13.0609 15.5786 14.0783 14.8284 14.8284C14.0783 15.5786 13.0609 16 12 16ZM18.41 4.15C18.1252 4.15 17.8468 4.23445 17.61 4.39268C17.3732 4.55091 17.1886 4.77581 17.0796 5.03894C16.9706 5.30206 16.9421 5.5916 16.9977 5.87093C17.0532 6.15026 17.1904 6.40685 17.3918 6.60823C17.5932 6.80962 17.8497 6.94677 18.1291 7.00233C18.4084 7.05789 18.6979 7.02938 18.9611 6.92039C19.2242 6.8114 19.4491 6.62683 19.6073 6.39002C19.7655 6.15321 19.85 5.87481 19.85 5.59C19.85 5.20809 19.6983 4.84182 19.4282 4.57177C19.1582 4.30171 18.7919 4.15 18.41 4.15Z" fill="#FAF8F5"/>
</svg>
