<?xml version="1.0"?>
<svg viewBox="0 0 130 140" preserveAspectRatio="none" width="130" height="140" xmlns="http://www.w3.org/2000/svg" xmlns:svg="http://www.w3.org/2000/svg">
 <style type="text/css">.st0{clip-path:url(#SVGID_00000013176956929894136530000016549923771918143899_);fill:#fff;}
	.st1{fill:#fff;}</style>
 <g class="layer">
  <title>Layer 1</title>
  <g id="svg_5">
   <path d="m65.299997,63.600006c-0.2,0.5 -0.6,0.8 -0.9,1.1c-0.2,0.1 -0.3,0.2 -0.5,0.3c-0.2,0.1 -0.4,0.1 -0.5,0.1c-0.1,0 -0.3,0 -0.4,-0.1l0,0l-19.1,-4.2c-0.2,-0.1 -0.3,-0.1 -0.5,-0.3c-0.3,-0.2 -0.5,-0.4 -0.7,-0.8c-0.2,-0.3 -0.4,-0.7 -0.4,-1.2l0,0l-1.9,-7.9l2.1,-1c0.7,-0.3 1.3,-0.7 1.9,-1.1c0,0 0,0.1 0,0.1c0.1,0.7 0.3,1.5 0.5,2.5c0.1,0.7 0.3,1.4 0.4,2.2c0.1,0.5 0.2,1.1 0.4,1.6c0.1,0.4 0.2,0.7 0.3,1c0.1,0.2 0.2,0.5 0.2,0.7c0.1,0.2 0.1,0.3 0.2,0.5c0.1,0.1 0.1,0.2 0.2,0.3c0.1,0.2 0.2,0.3 0.4,0.5c0.1,0.1 0.2,0.1 0.3,0.2c0.1,0.1 0.3,0.1 0.4,0.1c0.1,0 0.1,0 0.2,0l15.2,-1.8c0,0 0.1,0 0.1,0.1c0.1,0.1 0.2,0.1 0.3,0.3c0.2,0.2 0.4,0.5 0.5,0.8c0.3,0.5 0.6,1 0.8,1.5c0.2,0.5 0.5,1.1 0.6,1.5c0.2,0.4 0.3,0.9 0.3,1.4c0,0.6 -0.1,1.2 -0.4,1.6l0,0zm-40.1,-5.1l0,0c-0.1,0.6 -0.4,1.1 -0.7,1.5c-0.2,0.2 -0.3,0.3 -0.5,0.5c-0.2,0.1 -0.3,0.2 -0.5,0.3l-19.1,4.2l0,0c-0.1,0 -0.3,0.1 -0.4,0.1c-0.2,0 -0.4,0 -0.5,-0.1c-0.3,-0.1 -0.5,-0.2 -0.8,-0.5c-0.2,-0.2 -0.5,-0.5 -0.6,-0.9c-0.2,-0.5 -0.4,-1 -0.4,-1.6c0,-0.5 0.1,-0.9 0.2,-1.3c0.2,-0.4 0.3,-0.9 0.6,-1.4c0.2,-0.4 0.4,-0.8 0.5,-1.1c0.1,-0.3 0.3,-0.5 0.4,-0.8c0.2,-0.4 0.4,-0.6 0.6,-0.8c0.1,-0.1 0.1,-0.1 0.2,-0.1l15.2,1.8c0.1,0 0.1,0 0.2,0c0.2,0 0.3,-0.1 0.5,-0.1c0.1,-0.1 0.2,-0.1 0.3,-0.2c0.2,-0.1 0.3,-0.3 0.4,-0.5c0.1,-0.1 0.2,-0.3 0.2,-0.5c0.1,-0.3 0.3,-0.6 0.4,-1c0.2,-0.6 0.4,-1.4 0.6,-2.1c0.3,-1.2 0.5,-2.4 0.7,-3.5c0.1,-0.5 0.2,-1 0.3,-1.5c0,0 0,-0.1 0,-0.1c0.6,0.4 1.2,0.8 1.9,1.1l2.1,1l-1.8,7.6l0,0zm-0.3,-54.1c0,-0.1 0,-0.2 0,-0.3c0,-0.1 0,-0.3 0.1,-0.4c0.1,-0.2 0.1,-0.3 0.2,-0.4c0,0 0.1,-0.1 0.1,-0.1c0,0 0.1,0 0.1,0l0,0l2,-0.4c0,0 0,0 0,0c0,0 0.1,0 0.1,0c0.1,0 0.1,0.1 0.2,0.2c0.1,0.1 0.2,0.2 0.2,0.4l1.6,5.9c-1,0.5 -2,1.1 -3.1,1.5l-1.5,-6.4l0,0zm14.3,-1.7c0.1,-0.2 0.2,-0.4 0.3,-0.5c0,0 0.1,-0.1 0.1,-0.1c0,0 0.1,0 0.1,0c0,0 0,0 0,0l2,0.4l0,0c0,0 0.1,0 0.1,0.1c0.1,0.1 0.2,0.2 0.2,0.3c0.1,0.2 0.1,0.4 0.1,0.6c0,0.1 0,0.2 0,0.3l-1.7,7.1c-1.1,-0.5 -2.1,-1 -3.1,-1.6c0.1,-0.1 0.1,-0.2 0.1,-0.3l1.8,-6.3l0,0zm27.5,55.8c-0.2,-0.4 -0.4,-0.8 -0.6,-1.2c-0.2,-0.3 -0.3,-0.6 -0.5,-0.9c-0.3,-0.4 -0.6,-0.8 -0.9,-1.1c-0.2,-0.2 -0.4,-0.3 -0.6,-0.4c-0.2,-0.1 -0.5,-0.2 -0.8,-0.3c-0.1,0 -0.1,0 -0.2,0l-14.9,1.7c-0.1,-0.1 -0.1,-0.3 -0.2,-0.6c-0.2,-0.5 -0.4,-1.2 -0.5,-2c-0.3,-1.1 -0.5,-2.4 -0.7,-3.6c-0.1,-0.6 -0.2,-1.1 -0.3,-1.6c0,-0.2 -0.1,-0.4 -0.1,-0.6c0,-0.2 -0.1,-0.4 -0.1,-0.5c0,-0.1 0,-0.1 -0.1,-0.2c0.1,-0.1 0.3,-0.3 0.4,-0.4c1.1,-1.2 1.9,-2.6 2.3,-4.2l0,0c0,-0.1 0,-0.2 0.1,-0.2l2.6,-11.4c0.1,-0.5 -0.2,-1.1 -0.8,-1.2c-0.5,-0.1 -1.1,0.2 -1.2,0.8l-2.6,11.4c0,0.1 0,0.1 0,0.2l0,0c-0.3,1.2 -0.9,2.3 -1.8,3.3c-0.9,1 -2,1.8 -3.4,2.4l-7.6,3.4c-0.1,0.1 -0.3,0.1 -0.5,0.1c-0.2,0 -0.3,0 -0.5,-0.1l-7.3,-3.4c-1,-0.5 -2,-1.1 -2.7,-1.8c-0.8,-0.7 -1.4,-1.5 -1.8,-2.4c-0.2,-0.5 -0.4,-1 -0.5,-1.6l-6.1,-27.1c0.7,0.1 1.3,0.1 2,0.1c2.8,0 5.6,-0.6 8.2,-1.5c2.6,-0.9 5.1,-2.2 7.4,-3.6l1.2,-0.7l1.2,0.7c2.3,1.4 4.8,2.7 7.4,3.6c2.6,1 5.4,1.6 8.2,1.6c0.9,0 1.7,-0.1 2.6,-0.2l-1.2,5.3c-0.1,0.5 0.2,1.1 0.8,1.2c0.5,0.1 1.1,-0.2 1.2,-0.8l0,0l1.5,-6.8c0.1,-0.3 0,-0.7 -0.3,-0.9c-0.2,-0.2 -0.6,-0.4 -0.9,-0.3l-0.9,0.2c-1,0.2 -1.9,0.3 -2.9,0.3c-2.5,0 -5.1,-0.6 -7.6,-1.5c-0.1,0 -0.2,-0.1 -0.3,-0.1l1.8,-7.5l0,0c0,-0.2 0.1,-0.5 0.1,-0.7c0,-0.3 0,-0.7 -0.1,-1c-0.1,-0.5 -0.4,-0.9 -0.7,-1.2c-0.2,-0.2 -0.4,-0.3 -0.6,-0.5c-0.2,-0.1 -0.5,-0.2 -0.7,-0.3l0,0l-2,-0.4l0,0c-0.1,0 -0.3,0 -0.4,0c-0.3,0 -0.6,0.1 -0.9,0.2c-0.4,0.2 -0.7,0.4 -1,0.8c-0.3,0.3 -0.5,0.7 -0.6,1.2l0,0l-1.6,6.1l-1.7,-1c-0.3,-0.2 -0.7,-0.2 -1,0l-1.6,1l-1.4,-5.4l0,0c-0.2,-0.6 -0.4,-1.1 -0.9,-1.5c-0.2,-0.2 -0.4,-0.3 -0.7,-0.5c-0.3,-0.1 -0.6,-0.2 -0.9,-0.2c-0.1,0 -0.3,0 -0.4,0l-2,0.4c-0.3,0.1 -0.7,0.2 -0.9,0.4c-0.4,0.3 -0.7,0.7 -0.9,1.1c-0.2,0.4 -0.3,0.9 -0.3,1.4c0,0.2 0,0.5 0.1,0.7l0,0l1.6,6.7c-0.1,0.1 -0.3,0.1 -0.4,0.1c-2.5,0.9 -5,1.4 -7.5,1.4c-1,0 -2.1,-0.1 -3.1,-0.3c-0.1,0 -0.1,0 -0.2,0l0,0c-0.3,0 -0.6,0.1 -0.8,0.4c-0.2,0.2 -0.3,0.6 -0.2,0.9l6.4,28.5c0.2,0.7 0.4,1.4 0.7,2c0.5,1 1.1,1.9 1.9,2.7c0,0 0,0.1 0,0.1l0,0c-0.1,0.3 -0.1,0.6 -0.2,1c-0.1,0.7 -0.3,1.6 -0.5,2.5c-0.1,0.7 -0.3,1.4 -0.4,2.1c-0.1,0.5 -0.2,1 -0.3,1.5c-0.1,0.3 -0.2,0.7 -0.3,0.9c-0.1,0.2 -0.1,0.4 -0.2,0.5c0,0.1 -0.1,0.2 -0.1,0.2l-14.9,-1.7c-0.1,0 -0.1,0 -0.2,0c-0.2,0 -0.3,0.1 -0.5,0.1c-0.3,0.1 -0.5,0.3 -0.7,0.5c-0.2,0.2 -0.3,0.3 -0.5,0.5c-0.3,0.3 -0.5,0.7 -0.7,1.1c-0.3,0.6 -0.6,1.2 -0.9,1.8c-0.3,0.6 -0.5,1.2 -0.7,1.6c-0.2,0.7 -0.4,1.4 -0.4,2.1c0,0.8 0.2,1.7 0.6,2.5c0.4,0.7 0.9,1.4 1.5,1.8c0.3,0.2 0.7,0.4 1,0.5c0.4,0.1 0.8,0.2 1.2,0.2c0.3,0 0.6,0 0.9,-0.1l0,0l19.1,-4.3l0.1,0c0.4,-0.1 0.8,-0.3 1.1,-0.5c0.5,-0.4 0.9,-0.8 1.3,-1.4c0.3,-0.5 0.6,-1.1 0.7,-1.8l0,0l1.8,-7.4l3.3,1.5c0.4,0.2 0.9,0.3 1.3,0.3c0.4,0 0.9,-0.1 1.3,-0.3l3.6,-1.6l1.8,7.5l0,0c0.2,0.9 0.5,1.7 1.1,2.3c0.3,0.3 0.6,0.6 0.9,0.8c0.3,0.2 0.7,0.4 1.1,0.5l0.1,0l19.1,4.3l0,0c0.3,0.1 0.6,0.1 0.9,0.1c0.4,0 0.8,-0.1 1.2,-0.2c0.6,-0.2 1.1,-0.5 1.5,-0.9c0.4,-0.4 0.8,-0.9 1.1,-1.5c0.4,-0.8 0.6,-1.6 0.6,-2.5c0,-0.7 -0.1,-1.4 -0.4,-2.1c-0.7,-0.1 -0.9,-0.6 -1.1,-1.1l0,0z" fill="black" id="svg_1"/>
   <path d="m37.999997,30.300006c-0.1,0.2 -0.3,0.4 -0.5,0.5c-0.4,0.3 -1,0.6 -1.7,0.8c-0.7,0.2 -1.5,0.3 -2.4,0.3c-0.7,0 -1.3,-0.1 -1.9,-0.2c-0.4,-0.1 -0.8,-0.2 -1.2,-0.3c-0.5,-0.2 -0.9,-0.5 -1.2,-0.7c-0.1,-0.1 -0.2,-0.2 -0.3,-0.3c-0.1,-0.1 -0.1,-0.2 -0.1,-0.3c0,0 0,0 0,0l0,-1.5c0,0 0,0 0.1,0c0.6,0.3 1.3,0.4 2.1,0.6c0.8,0.1 1.6,0.2 2.6,0.2c0.8,0 1.6,-0.1 2.4,-0.2c0.6,-0.1 1.1,-0.2 1.6,-0.3c0.3,-0.1 0.5,-0.2 0.8,-0.3l0,1.4c0,0 0,0 0,0c-0.2,0.1 -0.2,0.2 -0.3,0.3l0,0zm-9.2,-4.1c0.1,-0.1 0.3,-0.2 0.6,-0.4c0.4,-0.2 1,-0.4 1.7,-0.5c0.7,-0.1 1.5,-0.2 2.3,-0.2c0.7,0 1.4,0.1 2.1,0.2c0.5,0.1 0.9,0.2 1.3,0.3c0.3,0.1 0.5,0.2 0.7,0.3c0.2,0.1 0.3,0.1 0.4,0.2c0.1,0.1 0.2,0.1 0.2,0.2c0,0 0,0 -0.1,0c-0.1,0.1 -0.3,0.2 -0.6,0.4c-0.4,0.2 -1,0.4 -1.7,0.5c-0.7,0.1 -1.5,0.2 -2.3,0.2c-0.7,0 -1.4,-0.1 -2.1,-0.2c-0.5,-0.1 -0.9,-0.2 -1.3,-0.3c-0.3,-0.1 -0.5,-0.2 -0.7,-0.3c-0.2,-0.1 -0.3,-0.1 -0.4,-0.2c-0.1,0 -0.1,-0.1 -0.1,-0.2c-0.1,0.1 0,0.1 0,0l0,0zm11.3,-0.4c-0.1,-0.3 -0.2,-0.5 -0.4,-0.8c-0.1,-0.2 -0.3,-0.3 -0.5,-0.5c-0.3,-0.2 -0.7,-0.4 -1.1,-0.6c-0.6,-0.3 -1.3,-0.4 -2.1,-0.6c-0.8,-0.1 -1.6,-0.2 -2.6,-0.2c-0.8,0 -1.6,0.1 -2.4,0.2c-0.6,0.1 -1.1,0.2 -1.6,0.3c-0.4,0.1 -0.7,0.2 -1,0.4c-0.2,0.1 -0.4,0.2 -0.6,0.4c-0.3,0.2 -0.6,0.4 -0.8,0.7c-0.1,0.2 -0.2,0.3 -0.3,0.5c-0.1,0.2 -0.1,0.4 -0.1,0.6c0,0.1 0,0.3 0,0.4c0,0.1 0,0.2 0,0.3l0,0l0,3.2c0,0.2 0,0.3 0.1,0.5c0.1,0.2 0.1,0.4 0.2,0.6c0.3,0.5 0.6,0.8 1.1,1.2c0.6,0.5 1.4,0.8 2.3,1.1c0.9,0.2 1.9,0.4 3,0.4c0.8,0 1.6,-0.1 2.3,-0.2c0.5,-0.1 1.1,-0.3 1.5,-0.4c0.7,-0.3 1.3,-0.6 1.8,-1.1c0.3,-0.2 0.5,-0.5 0.7,-0.8c0.1,-0.2 0.2,-0.4 0.3,-0.7c0.1,-0.1 0.1,-0.3 0.1,-0.5l0,-3.2c0,-0.1 0,-0.2 0,-0.3c0,-0.1 0,-0.3 0,-0.4c0.1,-0.2 0.1,-0.3 0.1,-0.5l0,0z" fill="black" id="svg_2"/>
   <path d="m40.599997,40.600006c0,0 0,0 0,0c0,0.1 -0.1,0.2 -0.1,0.3c-0.1,0.2 -0.3,0.4 -0.5,0.6c-0.2,0.2 -0.5,0.4 -0.9,0.5l-5.4,2.4l-5.2,-2.4c-0.4,-0.2 -0.7,-0.4 -0.9,-0.6c-0.2,-0.2 -0.4,-0.4 -0.5,-0.6c0,-0.1 -0.1,-0.2 -0.1,-0.2l-4.5,-19.8c3.5,-0.7 7.2,-2.1 10.9,-4.2c4,2.2 7.8,3.7 11.6,4.4l-4.4,19.6l0,0zm5.7,-21.3c-3.9,-0.6 -8.1,-2.2 -12.4,-4.6c-0.3,-0.2 -0.7,-0.2 -1,0c-4.1,2.3 -8.1,3.8 -11.8,4.4c-0.3,0 -0.5,0.2 -0.7,0.4c-0.2,0.2 -0.2,0.5 -0.1,0.8l4.7,20.8c0.1,0.2 0.1,0.4 0.2,0.7c0.2,0.5 0.6,0.9 1,1.2c0.4,0.4 0.9,0.7 1.4,0.9l5.6,2.6c0.3,0.1 0.6,0.1 0.8,0l5.8,-2.6c0.6,-0.3 1.2,-0.7 1.7,-1.1c0.2,-0.2 0.4,-0.5 0.6,-0.7c0.2,-0.3 0.3,-0.6 0.4,-0.9l0,0c0,0 0,0 0,-0.1l0,0l4.6,-20.5c0.1,-0.3 0,-0.6 -0.1,-0.8s-0.4,-0.4 -0.7,-0.5l0,0z" fill="black" id="svg_3"/>
   <path d="m51.799997,24.700006c-0.6,0 -1,0.5 -1,1c0,0.6 0.5,1 1,1c0.6,0 1,-0.5 1,-1c0,-0.5 -0.5,-1 -1,-1l0,0z" id="svg_4"/>
  </g>
 </g>
</svg>

