<?xml version="1.0" encoding="utf-8"?>
<!-- Generator: Adobe Illustrator 26.0.3, SVG Export Plug-In . SVG Version: 6.00 Build 0)  -->
<svg version="1.1" id="Layer_1" xmlns="http://www.w3.org/2000/svg" xmlns:xlink="http://www.w3.org/1999/xlink" 
	 viewBox="470 470 10 150" height="140" width="140" xml:space="preserve">
<style type="text/css">
	svg{
		background: transparent;
		fill: #fff;
	}
</style>


<g id="NewGroupe10">
	<g id="NewGroup0-9">
		<g>
			<path d="M442.2,538.6c-0.2-0.3-0.2-0.6-0.2-0.9c0-0.2,0-0.3,0.1-0.5l1.4-4.8l0,0c0.1-0.4,0.3-0.6,0.6-0.8c0.3-0.2,0.6-0.3,1-0.3
				c0.1,0,0.2,0,0.3,0l0.1,0l2.6,0.3l-2.3,7.6l-2.3,0.1c-0.2,0-0.4-0.1-0.6-0.2C442.6,539,442.3,538.8,442.2,538.6L442.2,538.6z
				 M461.1,494.3c0-0.3,0.1-0.7,0.3-1c0.2-0.3,0.5-0.5,0.8-0.6c0.2,0,0.3-0.1,0.5-0.1c0.3,0,0.6,0.1,0.9,0.3
				c0.3,0.2,0.5,0.4,0.6,0.8l0,0l2.4,6l-2.7,2.2l-2.7-7C461.1,494.7,461.1,494.5,461.1,494.3L461.1,494.3z M478,502.5l2.7,2.6
				l-4.8,12.6l-1.9-4.9L478,502.5L478,502.5z M480.6,495.8l2.8,2.2l-2,5.2l-2.7-2.6L480.6,495.8L480.6,495.8z M483.8,487.9
				L483.8,487.9c0.1-0.2,0.3-0.5,0.6-0.7c0.3-0.2,0.6-0.3,0.9-0.3c0.2,0,0.3,0,0.5,0.1c0.4,0.1,0.6,0.3,0.8,0.6
				c0.2,0.3,0.3,0.6,0.3,1c0,0.2,0,0.4-0.1,0.6l-2.7,7l-2.7-2.2L483.8,487.9L483.8,487.9z M466.6,508.9l-2-5.2l2.8-2.2l1.9,4.8
				L466.6,508.9L466.6,508.9z M482.7,538.5c0.6,0.4,1.3,0.6,2,0.6c0.2,0,0.4,0,0.6-0.1l12.8-1.5l2.2,7.3l-18.9-0.8l-0.1,0
				c0,0-0.1,0-0.1,0c-0.3,0-0.7-0.1-0.9-0.3c-0.3-0.2-0.5-0.4-0.6-0.8l-12.3-32.2l2.7-2.6l11.3,28.6
				C481.6,537.6,482.1,538.1,482.7,538.5L482.7,538.5z M502.7,537.1c0.1,0,0.2,0,0.3,0c0.4,0,0.7,0.1,1,0.3c0.3,0.2,0.5,0.5,0.6,0.8
				l1.4,4.7c0,0.2,0.1,0.3,0.1,0.5c0,0.2,0,0.4-0.1,0.6c-0.1,0.3-0.3,0.5-0.5,0.7c-0.2,0.2-0.5,0.3-0.8,0.3l-2.3-0.1l-2.3-7.6
				L502.7,537.1L502.7,537.1L502.7,537.1z M443.4,541.3l2.9-0.1c0.1,0,0.2,0,0.3,0l7.1-0.3c0.5,0,0.9-0.5,0.9-1c0-0.5-0.5-0.9-1-0.9
				l-5.9,0.3l2.2-7.3l12.8,1.5c0.2,0,0.4,0.1,0.6,0.1c0.7,0,1.4-0.2,2-0.6c0.6-0.4,1-1,1.3-1.6l3.2-8.2l2,5.2l-3.5,9.2
				c-0.1,0.3-0.3,0.6-0.6,0.8c-0.3,0.2-0.6,0.3-0.9,0.3c0,0-0.1,0-0.1,0c0,0-0.1,0-0.1,0l-3.2,0.1c-0.5,0-0.9,0.5-0.9,1
				c0,0.5,0.5,0.9,1,0.9l0,0l3.2-0.1c0.1,0,0.1,0,0.2,0c0.7,0,1.4-0.2,2-0.6c0.6-0.4,1-1,1.3-1.7l2.8-7.2l5,13
				c0.3,0.7,0.7,1.3,1.3,1.7c0.6,0.4,1.3,0.6,2,0.6c0.1,0,0.1,0,0.2,0l23.3,1l0.1,0c0.5,0,0.9-0.2,1.3-0.4c0.6-0.3,1.1-0.8,1.4-1.3
				c0.3-0.6,0.5-1.2,0.5-1.9c0-0.3,0-0.7-0.2-1l-1.4-4.7c-0.2-0.8-0.7-1.4-1.3-1.8c-0.6-0.4-1.3-0.7-2.1-0.7c-0.2,0-0.4,0-0.6,0.1
				l-17.4,2l0,0c-0.1,0-0.2,0-0.3,0c-0.3,0-0.6-0.1-0.9-0.3c-0.3-0.2-0.5-0.4-0.6-0.8l-6.2-15.8l5.8-15.2l2.8-7.2l3.1-8.2
				c0.2-0.4,0.2-0.8,0.2-1.3c0-0.8-0.2-1.5-0.7-2.1c-0.4-0.6-1.1-1.1-1.8-1.3l0,0c-0.3-0.1-0.7-0.2-1-0.2c-0.7,0-1.4,0.2-2,0.6
				c-0.6,0.4-1.1,1-1.3,1.6l0,0l-2.6,6.6l-2.6,6.6l-3.9,9.8L466,493l-0.9,0.4l0.9-0.4c-0.3-0.7-0.7-1.3-1.3-1.6
				c-0.6-0.4-1.3-0.6-2-0.6c-0.3,0-0.7,0-1,0.2c-0.8,0.2-1.4,0.7-1.8,1.3c-0.4,0.6-0.7,1.3-0.7,2.1c0,0.4,0.1,0.9,0.2,1.3l9.5,24.7
				l-4,10.1c-0.1,0.3-0.3,0.6-0.6,0.8c-0.3,0.2-0.6,0.3-0.9,0.3c-0.1,0-0.2,0-0.3,0l-0.1,0l-17.4-2c-0.2,0-0.4-0.1-0.6-0.1
				c-0.8,0-1.5,0.3-2.1,0.7c-0.6,0.4-1.1,1.1-1.3,1.8l0,0l-1.4,4.7c-0.1,0.3-0.2,0.7-0.2,1c0,0.5,0.1,0.9,0.2,1.3
				c0.2,0.6,0.6,1.1,1.2,1.5c0.5,0.4,1.2,0.7,1.9,0.7C443.3,541.3,443.4,541.3,443.4,541.3L443.4,541.3z"/>
			<path d="M489.1,514.2c0.7-0.2,1.6-0.4,2.6-0.6c1-0.1,2.1-0.2,3.3-0.2c1.1,0,2.2,0.1,3.1,0.2c0.7,0.1,1.4,0.2,2,0.4
				c0.4,0.1,0.8,0.2,1.1,0.4c0.2,0.1,0.5,0.2,0.6,0.3c0.1,0.1,0.2,0.1,0.3,0.2c0.1,0.1,0.2,0.2,0.2,0.2c0,0,0,0,0,0
				c0,0-0.1,0.1-0.1,0.2c-0.1,0.1-0.2,0.2-0.4,0.3c-0.3,0.2-0.7,0.3-1.1,0.5c-0.7,0.2-1.6,0.4-2.6,0.6c-1,0.1-2.1,0.2-3.3,0.2
				c-1.1,0-2.2-0.1-3.1-0.2c-0.7-0.1-1.4-0.2-2-0.4c-0.4-0.1-0.8-0.2-1.1-0.4c-0.2-0.1-0.5-0.2-0.6-0.3c-0.1-0.1-0.2-0.1-0.3-0.2
				c-0.1-0.1-0.2-0.2-0.2-0.2c0,0,0,0,0,0c0,0,0.1-0.1,0.1-0.2c0.1-0.1,0.2-0.2,0.4-0.3C488.3,514.5,488.7,514.4,489.1,514.2
				L489.1,514.2z M502.3,521.8c-0.1,0.1-0.2,0.2-0.4,0.3c-0.3,0.2-0.7,0.3-1.1,0.5c-0.7,0.2-1.6,0.4-2.6,0.6c-1,0.1-2.1,0.2-3.2,0.2
				c-1.1,0-2.2-0.1-3.2-0.2c-0.7-0.1-1.4-0.2-2-0.4c-0.4-0.1-0.8-0.2-1.2-0.4c-0.2-0.1-0.5-0.2-0.6-0.3c-0.1-0.1-0.2-0.2-0.3-0.2
				c-0.1-0.1-0.2-0.2-0.2-0.2c0,0,0,0,0,0c0,0,0-0.1,0-0.1v-4c0.2,0.1,0.3,0.2,0.5,0.2c0.9,0.3,1.9,0.6,3.1,0.8
				c1.2,0.2,2.5,0.3,3.9,0.3c1.2,0,2.3-0.1,3.4-0.2c0.8-0.1,1.5-0.2,2.2-0.4c0.5-0.1,1-0.3,1.4-0.4c0.2-0.1,0.4-0.2,0.6-0.3v4.1
				c0,0,0,0.1,0,0.1c0,0,0,0,0,0C502.5,521.6,502.4,521.7,502.3,521.8L502.3,521.8z M487.1,513c-0.2,0.1-0.4,0.2-0.6,0.4
				c-0.3,0.2-0.5,0.4-0.7,0.7c-0.1,0.1-0.2,0.3-0.2,0.5c-0.1,0.2-0.1,0.4-0.1,0.5c0,0,0,0,0,0.1c0,0.1,0,0.2,0,0.3l0,0v6
				c0,0,0,0,0,0c0,0,0,0,0,0c0,0.2,0,0.4,0.1,0.6c0.1,0.2,0.1,0.3,0.2,0.5c0.2,0.3,0.4,0.5,0.6,0.7c0.4,0.3,0.9,0.6,1.5,0.8
				c0.9,0.4,1.9,0.6,3.1,0.8c1.2,0.2,2.5,0.3,3.9,0.3c1.2,0,2.4-0.1,3.4-0.2c0.8-0.1,1.5-0.3,2.2-0.4c0.5-0.1,1-0.3,1.4-0.5
				c0.3-0.1,0.6-0.3,0.9-0.4c0.2-0.1,0.4-0.2,0.6-0.4c0.3-0.2,0.5-0.4,0.7-0.7c0.1-0.1,0.2-0.3,0.2-0.5c0.1-0.2,0.1-0.4,0.1-0.5
				c0,0,0,0,0,0c0,0,0,0,0,0v-6c0-0.2-0.1-0.4-0.2-0.5c0-0.1,0-0.3-0.1-0.4c-0.1-0.2-0.1-0.3-0.2-0.5c-0.2-0.3-0.4-0.5-0.6-0.7
				c-0.4-0.3-0.9-0.6-1.5-0.8c-0.9-0.3-1.9-0.6-3.1-0.8c-1.2-0.2-2.5-0.3-3.9-0.3c-1.2,0-2.3,0.1-3.4,0.2c-0.8,0.1-1.5,0.2-2.2,0.4
				c-0.5,0.1-1,0.3-1.4,0.4C487.7,512.7,487.4,512.9,487.1,513L487.1,513z"/>
			<path d="M457.7,539.7c0,0.5,0.4,1,1,1c0.5,0,1-0.4,1-1c0-0.5-0.4-1-1-1C458.1,538.7,457.7,539.1,457.7,539.7L457.7,539.7z"/>
		</g>
	</g>
	
</g>

</svg>
