<?xml version="1.0" encoding="UTF-8" standalone="no"?>
<!-- Created with Inkscape (http://www.inkscape.org/) -->
<svg xmlns:rdf="http://www.w3.org/1999/02/22-rdf-syntax-ns#" xmlns="http://www.w3.org/2000/svg" xmlns:cc="http://web.resource.org/cc/" xmlns:dc="http://purl.org/dc/elements/1.1/" xmlns:svg="http://www.w3.org/2000/svg" xmlns:inkscape="http://www.inkscape.org/namespaces/inkscape" xmlns:sodipodi="http://sodipodi.sourceforge.net/DTD/sodipodi-0.dtd" xmlns:ns1="http://sozi.baierouge.fr" xmlns:xlink="http://www.w3.org/1999/xlink" id="Layer_1" xml:space="preserve" version="1.0" viewBox="0 0 353.359 511.618" inkscape:version="0.91 r13725">
<path id="path5" style="stroke:#000000;stroke-width:.036;stroke-miterlimit:10;fill-rule:evenodd" d="m176.69 1.015c-8.64-1.584-15.59-1.26-20.85 0.828-5.29 2.124-8.85 5.868-10.83 11.664-13.25 1.692-25.71 4.932-38.34 10.008-12.675 5.04-26.427 11.988-36.687 20.016-10.26 7.956-18.144 17.028-24.192 27.504-4.896-1.476-9.792 0.288-14.976 5.832-5.256 5.508-13.176 17.964-15.84 26.673-2.664 8.54-2.664 16.42 0 24.2l-5.004 32.5c-4.752-0.54-7.812 3.86-9.18 13.32-1.404 9.51-0.756 30.39 0.828 43.35 1.584 12.71 6.264 21.09 8.352 33.37 1.908 12.35 1.764 27.72 3.312 40 1.548 12.06 0.216 18 5.868 32.54s18.432 37.51 27.504 54.18c8.964 16.56 18.18 30.13 25.848 45 7.452 14.83 12.312 30.96 19.152 43.38 6.768 12.35 14.225 22.57 21.675 29.99 7.38 7.13 13.64 10.65 22.53 13.35 8.79 2.63 18.69 3.46 29.99 2.49h21.67c11.34 0.97 21.17 0.14 30.03-2.49 8.67-2.7 15.15-6.22 22.5-13.35 7.38-7.42 14.76-17.64 21.71-29.99 6.84-12.42 11.55-28.55 19.15-43.38 7.56-14.87 16.77-28.44 25.85-45 9-16.67 21.78-39.64 27.5-54.18 5.54-14.54 4.25-20.48 5.83-32.54 1.51-12.28 1.33-27.65 3.35-40 2.02-12.28 6.7-20.66 8.35-33.37 1.51-12.96 2.16-33.84 0.83-43.35-1.4-9.46-4.46-13.86-9.18-13.32l-5-32.5c2.62-7.78 2.62-15.66 0-24.2-2.78-8.709-10.7-21.165-15.84-26.673-5.26-5.544-10.08-7.308-15.02-5.832-6.01-10.476-13.96-19.548-24.15-27.504-10.41-8.028-23.98-14.976-36.69-20.016-12.63-5.076-25.23-8.316-38.37-10.008-2.02-5.796-5.58-9.54-10.84-11.664-5.29-2.088-12.24-2.412-20.84-0.828z"/>
<path id="path7" style="fill-rule:evenodd;stroke:#000000;stroke-width:.036;stroke-miterlimit:10;fill:#ffffff" d="m44.207 82.771c-3.132 1.692-6.948 7.74-10.62 13.68-3.78 5.829-11.16 16.629-11.448 21.309-0.216 4.54 5.22 8.79 9.9 6.09 4.572-2.88 14.112-16.6 17.496-22.83 3.24-6.333 3.132-11.373 2.304-14.433-1.008-3.132-4.572-5.472-7.632-3.816z"/>
<path id="path9" style="fill-rule:evenodd;stroke:#000000;stroke-width:.036;stroke-miterlimit:10;fill:#ffffff" d="m176.62 12.751c-5.55 0-11.6-0.324-15.23 1.548-3.71 1.836-10.3 6.912-6.84 9.108 3.49 1.98 19.47 3.276 27.39 3.06 7.78-0.288 16.85-2.592 19.01-4.572 1.98-2.124-2.84-6.048-6.84-7.596-4.14-1.512-12.06-1.656-17.49-1.548z"/>
<path id="path11" style="fill-rule:evenodd;stroke:#000000;stroke-width:.036;stroke-miterlimit:10;fill:#ffffff" d="m172.87 142.1c-3.27 1.12-2.01 3.13-3.56 4.68-21.42-0.14-38.59-0.04-52.49 0.47-13.86 0.39-23.833 1.19-30.205 2.23-4.392-5.08-7.848-7.38-10.512-6.91-2.736 0.47-4.392 3.56-5.364 9.57-4.608 0.76-8.604 1.7-12.132 2.67-3.6 0.97-6.588 1.98-9.108 3.17-2.988-4.25-5.544-6.09-7.812-5.37-2.304 0.61-4.248 3.78-5.832 9.36-2.304 1.33-4.68 2.34-7.128 3.57-2.52 1.08-5.076 2.16-7.812 3.09l-2.556-5.22 8.352-31.97c5.004 1.66 9.684 0.9 14.472-2.26 4.644-3.28 10.548-10.66 13.68-16.74 3.024-6.3 4.176-13.685 4.572-19.769 0.36-6.048-0.396-11.232-2.268-15.984 4.68-7.74 10.512-14.364 17.496-20.556 7.02-6.156 16.704-11.808 24.336-15.984 7.381-4.248 13.211-6.912 20.561-9.108 7.34-2.232 15.15-3.888 23.58-4.572 0.86 2.916 3.6 4.896 8.35 6.084 4.68 1.08 14 0.54 19.8 0.756 5.54 0.072 8.78 0.072 14.43 0 5.73-0.216 15.02 0.324 19.8-0.756 4.72-1.188 7.42-3.168 8.39-6.084 8.39 0.684 16.2 2.34 23.58 4.572 7.31 2.196 13 4.86 20.52 9.108 7.6 4.176 17.14 9.828 24.34 15.984 7.06 6.192 12.71 12.816 17.53 20.556-1.98 4.752-2.7 9.936-2.3 15.984 0.32 6.084 1.47 13.469 4.57 19.769 3.02 6.08 8.93 13.46 13.68 16.74 4.75 3.16 9.39 3.92 14.47 2.26l8.35 31.97-2.01 7.31c-2.7-1.76-5.65-3.38-8.72-4.72-3.2-1.47-6.3-2.52-9.82-3.56-1.26-5.8-2.85-8.93-4.9-9.4-2.05-0.5-4.46 1.62-7.24 6.52-2.77-1.91-5.97-3.38-9.75-4.72-3.82-1.33-8.14-2.37-12.96-3.13-0.76-5.18-2.27-8.06-4.68-8.49-2.45-0.54-5.73 1.36-9.83 5.58-15.91-1.01-30.35-1.73-44.28-2.02-13.86-0.36-26.53-0.36-38.41 0l-3.56-4.46c-0.01 0-6.31-1.34-9.62-0.22z"/>
<path id="path13" style="fill-rule:evenodd;stroke:#000000;stroke-width:.036;stroke-miterlimit:10;fill:#ffffff" d="m312.37 82.771c2.99 1.692 6.91 7.74 10.66 13.68 3.67 5.829 11.09 16.629 11.41 21.309 0.14 4.54-5.33 8.79-9.9 6.09-4.68-2.88-14.22-16.6-17.5-22.83-3.38-6.333-3.16-11.373-2.26-14.433 0.93-3.132 4.39-5.472 7.59-3.816z"/>
<path id="path15" style="fill-rule:evenodd;stroke:#ffffff;stroke-width:.036;stroke-miterlimit:10;fill:#ffffff" d="m178.55 144.84c-0.9-0.33-1.77-0.15-2.61 0.68-0.9 0.76-1.77 2.09-2.6 4-8.92-0.44-18.44-0.58-29.42-0.44-11.01 0.11-26 0.83-35.78 1.34-9.745 0.36-17.134 0.93-22.314 1.33-2.39-3.31-4.491-5.37-6.157-6.01-1.739-0.72-3.223 0.54-4.057 1.98-0.942 1.36-1.231 3.45-1.159 6.26-4.492 0.97-8.875 2.09-13.293 3.35-4.455 1.19-8.874 2.52-13.256 3.99-1.231-2.84-2.427-4.68-3.586-5.11-1.268-0.54-2.825 0.69-3.549 2.02-0.833 1.26-1.015 3.24-0.942 5.79-6.158 2.24-11.011 4.29-14.706 6.45-3.731 2.05-5.578 3.09-7.353 6.05-1.811 2.91-3.042 6.66-3.549 11.37-0.072 1.33 0.435 5.15 1.666 11.31 1.231 6.22 3.369 17.1 5.434 25.66 1.992 8.46 5.071 15.84 6.157 24.77 0.87 8.82-0.652 20.74-0.217 28.12 0.543 7.27 1.449 11.3 3.006 15.55 1.413 4 3.115 6.41 5.252 9.18 2.064 2.84 4.6 4.79 6.918 7.63 2.209 2.7 4.419 5.58 6.483 8.64-0.471 4.39 0.217 7.24 2.064 8.53 1.775 1.3 4.745 0.9 8.765-0.9 3.948 4.32 7.933 8.32 12.098 11.85 4.093 3.6 8.222 6.55 12.532 9.39-1.267 2.16-1.412 4.04-0.435 5.76 0.87 1.7 4.021 3.82 6.121 4.29 2.101 0.36 4.129-0.29 6.375-1.95 3.477 3.39 7.502 7.06 12.642 11.16 5.07 4.11 11.01 9.4 17.53 13.4 6.45 3.85 13.22 7.48 20.86 9.79 7.57 2.27 15.51 3.53 24.2 3.78-0.33 1.11 0.07 2.16 1.19 3.13 1.09 0.9 2.86 1.8 5.47 2.56l0.22-254.7zm-116.23 135.61c5.179 6.59 9.96 12.02 14.343 16.7 4.419 4.54 7.245 6.55 11.808 10.91 4.419 4.32 9.345 9.32 14.779 15.15-2.75 1.95-5.253 4.22-7.499 6.66-2.318 2.52-4.311 5.04-6.121 8.1-4.238-3.49-8.584-7.12-13.184-10.9-4.709-3.89-9.309-7.78-14.344-11.95-1.014-8.25-1.376-15.2-1.376-20.99 0.072-5.76 0.507-10.37 1.594-13.68zm56.18 48.56c-2.72 1.41-5 3.46-7.28 5.76-2.36 2.34-4.46 6.05-6.16 8.35-1.74 2.31-2.97 4.04-3.84 5.33 2.94 2.63 6.01 5.47 9.53 8.14 3.37 2.59 6.48 4.93 11.15 8.13 4.68 3.24 11.78 8.25 16.81 11.13 4.82 2.7 7.39 3.71 12.75 5.11 5.4 1.26 11.7 2.12 19.3 2.59v-28.04c-3.94-0.4-8.54-1.44-14.09-3.42-5.68-2.05-13.72-5.47-19.08-8.32-5.36-2.95-9.57-6.3-12.75-8.78-3.23-2.49-5.29-4.43-6.34-5.98zm11.59-5.36c4.42-2.56 9.09-4.97 14.31-6.84 5.18-2.02 12.06-4.11 16.58-4.9 4.39-0.83 7.65-0.83 9.78 0v30.56c-2.97 0.61-6.62 0.33-11.12-0.86-4.63-1.23-10.97-3.49-15.93-6.41-5-3.02-9.49-6.87-13.62-11.55zm-97.978-88.67c1.413 2.38 3.405 5.18 6.121 8.96 2.644 3.64 5.904 8.03 9.779 13.04-0.217 8.56-0.362 15.19-0.435 20.55-0.072 5.22-0.072 8.86 0 10.91-4.165-1.73-7.208-5.15-9.127-10.26-2.065-5.29-2.173-15.19-2.717-20.56-0.688-5.25-0.289-7.48-0.905-11.12-0.616-3.85-1.521-7.6-2.716-11.52zm34.301 12.82l-3.839 3.42-0.688 10.9c5.107 6.02 9.78 11.52 14.561 16.67 4.563 5.01 7.352 7.89 13.401 13.9s13.652 13.21 22.962 22.03c4.53-2.12 9.64-4.14 15.47-6.19 5.87-2.05 12.1-4.83 19.08-5.98 6.89-1.22 14.02-1.65 21.81-1.29v-3.21c-5.94 0.69-12.71 0.04-20.9-1.94-8.22-2.13-18.73-5.65-27.74-10.05-9.13-4.39-17.06-9.68-26.154-16.02-9.057-6.48-18.329-13.71-27.963-22.24zm7.279-10.44c5.614-7.85 11.989-14.33 19.559-19.44 7.459-5.26 16.809-9.04 25.249-11.34 8.4-2.31 16.15-2.02 24.77-2.34 8.44-0.4 17.03-0.4 25.9 0v84.02c-5.36 0.61-11.59 0.25-19.09-1.48-7.57-1.8-16.66-3.96-25.46-8.56-8.91-4.76-18.22-12.17-26.805-19.05-8.62-6.91-16.48-14.04-24.123-21.81zm-34.553-62.64c-7.281 1.26-11.953 3.78-14.308 7.7-2.39 3.92-1.521 10.22 0.218 15.59 1.629 5.29 6.121 10.55 9.562 15.62 3.26 4.86 6.737 9.47 9.997 13.68 3.115 4.14 5.94 7.63 8.62 10.91l4.781-5.98c-4.238-10.04-7.642-18.57-10.214-25.88-2.644-7.38-3.839-12.46-5.252-17.75-1.485-5.36-2.571-9.86-3.404-13.89zm12.966-3.42c3.985-1.08 7.788-1.95 11.808-2.99 3.912-1.08 7.86-1.95 11.844-2.99 1.376 5.58 4.383 10.58 8.874 15.16 4.527 4.5 10.214 9.64 18.179 11.98 8.01 2.09 18.01 1.19 29.31 1.48 11.15 0.36 23.4 0.58 37.3 0.65v3.63c-6.3-0.39-13.9-0.61-23.21-0.64-9.38-0.04-23.4-0.87-32.28 0.43-9.01 1.11-13.36 2.88-21.149 6.84-7.86 3.99-16.154 9.54-25.427 16.92-4.817-11.31-8.331-21.1-10.938-29.52-2.536-8.53-4.021-15.34-4.311-20.95zm37.054-7.92c11.591-1.8 23.831-2.74 37.271-3.21 13.4-0.47 27.46-0.25 42.74 0.65v25.67c-11.7 0.36-22.2 0.36-32.05 0-10-0.43-19.64-0.43-26.81-2.38-7.17-2.12-12.386-6.37-15.935-9.83-3.55-3.56-5.289-7.02-5.216-10.9z"/>
<path id="path17" style="fill-rule:evenodd;stroke:#ffffff;stroke-width:.036;stroke-miterlimit:10;fill:#ffffff" d="m177.55 144.84c0.83-0.33 1.69-0.15 2.59 0.68 0.83 0.76 1.7 2.09 2.6 4 8.82-0.44 18.28-0.58 29.23-0.44 10.87 0.11 25.74 0.83 35.57 1.34 9.64 0.36 16.99 0.93 22.17 1.33 2.34-3.31 4.43-5.37 6.12-6.01 1.66-0.72 3.1 0.54 4.03 1.98 0.9 1.36 1.19 3.45 1.16 6.26 4.42 0.97 8.78 2.09 13.21 3.35 4.35 1.19 8.75 2.52 13.17 3.99 1.16-2.84 2.34-4.68 3.57-5.11 1.15-0.54 2.7 0.69 3.52 2.02 0.8 1.26 0.98 3.24 0.94 5.79 6.09 2.24 10.91 4.29 14.62 6.45 3.6 2.05 5.43 3.09 7.31 6.05 1.76 2.91 2.98 6.66 3.52 11.37 0.04 1.33-0.47 5.15-1.65 11.31-1.33 6.22-3.46 17.1-5.4 25.66-2.05 8.46-5.11 15.84-6.12 24.77-0.97 8.82 0.54 20.74 0.21 28.12-0.64 7.27-1.51 11.3-2.98 15.55-1.48 4-3.17 6.41-5.22 9.18-2.16 2.84-4.65 4.79-6.88 7.63-2.23 2.7-4.43 5.58-6.44 8.64 0.43 4.39-0.26 7.24-2.06 8.53-1.8 1.3-4.75 0.9-8.71-0.9-3.96 4.32-7.92 8.32-12.02 11.85-4.11 3.6-8.21 6.55-12.46 9.39 1.19 2.16 1.33 4.04 0.43 5.76-0.97 1.7-4.06 3.82-6.08 4.29-2.12 0.36-4.14-0.29-6.34-1.95-3.49 3.39-7.48 7.06-12.56 11.16-5.11 4.11-11.05 9.4-17.42 13.4-6.45 3.85-13.22 7.48-20.74 9.79-7.56 2.27-15.44 3.53-24.05 3.78 0.29 1.11-0.11 2.16-1.19 3.13-1.11 0.9-2.88 1.8-5.43 2.56l-0.22-254.7zm115.53 135.61c-5.22 6.59-9.98 12.02-14.26 16.7-4.46 4.54-7.31 6.55-11.74 10.91-4.42 4.32-9.32 9.32-14.68 15.15 2.66 1.95 5.14 4.22 7.45 6.66 2.27 2.52 4.24 5.04 6.08 8.1 4.18-3.49 8.5-7.12 13.11-10.9 4.6-3.89 9.21-7.78 14.25-11.95 0.97-8.25 1.33-15.2 1.37-20.99-0.11-5.76-0.54-10.37-1.58-13.68zm-55.84 48.56c2.66 1.41 4.9 3.46 7.24 5.76 2.23 2.34 4.31 6.05 6.11 8.35 1.7 2.31 2.92 4.04 3.82 5.33-2.95 2.63-6.01 5.47-9.47 8.14-3.45 2.59-6.55 4.93-11.09 8.13-4.71 3.24-11.81 8.25-16.7 11.13-4.9 2.7-7.45 3.71-12.67 5.11-5.4 1.26-11.67 2.12-19.19 2.59v-28.04c3.89-0.4 8.46-1.44 14-3.42 5.55-2.05 13.54-5.47 18.98-8.32 5.29-2.95 9.47-6.3 12.67-8.78 3.17-2.49 5.22-4.43 6.3-5.98zm-11.52-5.36c-4.43-2.56-9.07-4.97-14.22-6.84-5.26-2.02-12.1-4.11-16.49-4.9-4.39-0.83-7.63-0.83-9.72 0v30.56c2.92 0.61 6.55 0.33 11.05-0.86 4.5-1.23 10.8-3.49 15.84-6.41 4.94-3.02 9.4-6.87 13.54-11.55zm97.38-88.67c-1.44 2.38-3.42 5.18-6.08 8.96-2.67 3.64-5.91 8.03-9.72 13.04 0.18 8.56 0.32 15.19 0.43 20.55 0.03 5.22 0.03 8.86 0 10.91 4.07-1.73 7.09-5.15 9.07-10.26 1.94-5.29 2.05-15.19 2.7-20.56 0.61-5.25 0.22-7.48 0.9-11.12 0.54-3.85 1.44-7.6 2.7-11.52zm-34.09 12.82l3.81 3.42 0.69 10.9c-5.11 6.02-9.79 11.52-14.47 16.67-4.61 5.01-7.38 7.89-13.32 13.9-6.05 6.01-13.61 13.21-22.83 22.03-4.53-2.12-9.61-4.14-15.37-6.19-5.9-2.05-12.13-4.83-18.97-5.98-6.88-1.22-13.97-1.65-21.67-1.29v-3.21c5.86 0.69 12.6 0.04 20.77-1.94 8.1-2.13 18.54-5.65 27.57-10.05 8.97-4.39 16.89-9.68 25.99-16.02 8.97-6.48 18.19-13.71 27.8-22.24zm-7.24-10.44c-5.65-7.85-11.95-14.33-19.44-19.44-7.52-5.26-16.81-9.04-25.09-11.34-8.46-2.31-16.16-2.02-24.62-2.34-8.43-0.4-16.96-0.4-25.74 0v84.02c5.29 0.61 11.48 0.25 18.97-1.48 7.45-1.8 16.49-3.96 25.31-8.56 8.74-4.76 18-12.17 26.64-19.05 8.49-6.91 16.34-14.04 23.97-21.81zm34.35-62.64c7.2 1.26 11.84 3.78 14.22 7.7 2.26 3.92 1.4 10.22-0.22 15.59-1.73 5.29-6.19 10.55-9.5 15.62-3.35 4.86-6.81 9.47-9.94 13.68-3.13 4.14-5.94 7.63-8.57 10.91l-4.75-5.98c4.18-10.04 7.56-18.57 10.15-25.88 2.52-7.38 3.74-12.46 5.22-17.75 1.44-5.36 2.52-9.86 3.39-13.89zm-12.89-3.42c-4-1.08-7.78-1.95-11.74-2.99-3.96-1.08-7.88-1.95-11.77-2.99-1.44 5.58-4.32 10.58-8.78 15.16-4.61 4.5-10.19 9.64-18.11 11.98-8.06 2.09-17.97 1.19-29.13 1.48-11.12 0.36-23.29 0.58-37.08 0.65v3.63c6.23-0.39 13.79-0.61 23.08-0.64 9.22-0.04 23.15-0.87 32.08 0.43 8.89 1.11 13.17 2.88 21.02 6.84 7.81 3.99 16.06 9.54 25.31 16.92 4.71-11.31 8.28-21.1 10.83-29.52 2.56-8.53 3.86-15.34 4.29-20.95zm-36.83-7.92c-11.56-1.8-23.76-2.74-37.04-3.21-13.36-0.47-27.33-0.25-42.48 0.65v25.67c11.55 0.36 22.03 0.36 31.86 0 9.82-0.43 19.4-0.43 26.64-2.38 7.09-2.12 12.27-6.37 15.84-9.83 3.49-3.56 5.22-7.02 5.18-10.9z"/>
<path id="path19" style="fill-rule:evenodd;stroke:#000000;stroke-width:.036;stroke-miterlimit:10;fill:#ffffff" d="m30.059 308.56c0.036 12.06 4.068 25.74 12.528 41.58 8.388 15.88 27.936 35.21 37.548 52.74 9.468 17.39 8.784 35.07 19.188 50.94 10.437 15.77 24.557 35.75 42.917 43.02 18.36 7.06 49.42 5.33 66.13-0.46 16.49-5.94 22.61-18.44 32.65-34.42 9.94-16.2 17.53-45.72 26.82-61.2 9.25-15.34 19.84-19.55 28.15-30.42 8.14-11.05 16.06-24.34 20.56-34.85 4.35-10.51 6.33-19.62 5.79-27.72l-10.26 11.63c-0.9 6.88-2.55 11.16-5.36 13.43-2.84 2.19-6.44 1.94-11.2-0.47l-16.95 15.66c-0.15 6.19-1.84 10.26-4.93 12.49-3.17 2.09-7.74 2.34-13.86 0.47-5.62 8.42-12.42 15.23-20.56 20.99-8.28 5.68-19.8 10.18-28.15 12.96-8.35 2.62-15.41 3.67-21.46 3.13-3.49 2.56-7.02 3.85-10.73 4.03-3.78 0.11-7.56-0.94-11.62-3.13-15.66-1.59-29.02-5.26-40.65-11.16-11.66-5.98-21.06-13.9-28.619-24.16-5.04-0.07-9.252-0.86-12.492-2.23-3.312-1.58-5.652-3.81-7.164-6.26-1.476-2.42-2.124-5.04-1.8-8.03l-16.092-14.29c-5.292 1.47-9.36 1.11-12.06-1.37-2.808-2.48-4.248-6.95-4.464-13.39-4.608-3.17-9.216-6.34-13.86-9.51z"/>
<metadata><rdf:RDF><cc:Work><dc:format>image/svg+xml</dc:format><dc:type rdf:resource="http://purl.org/dc/dcmitype/StillImage"/><cc:license rdf:resource="http://creativecommons.org/licenses/publicdomain/"/><dc:publisher><cc:Agent rdf:about="http://openclipart.org/"><dc:title>Openclipart</dc:title></cc:Agent></dc:publisher><dc:title>G Goalie mask simple 2</dc:title><dc:date>2006-12-26T00:00:00</dc:date><dc:description/><dc:source>https://openclipart.org/detail/7755/-by--7755</dc:source><dc:creator><cc:Agent><dc:title>Gerald_G</dc:title></cc:Agent></dc:creator></cc:Work><cc:License rdf:about="http://creativecommons.org/licenses/publicdomain/"><cc:permits rdf:resource="http://creativecommons.org/ns#Reproduction"/><cc:permits rdf:resource="http://creativecommons.org/ns#Distribution"/><cc:permits rdf:resource="http://creativecommons.org/ns#DerivativeWorks"/></cc:License></rdf:RDF></metadata></svg>
