<svg width="24" height="24" viewBox="0 0 24 24" fill="none" xmlns="http://www.w3.org/2000/svg"><path d="M12 2.16c3.2 0 3.58 0 4.85.07a6.67 6.67 0 012.23.42 3.89 3.89 0 012.27 2.27c.266.714.408 1.468.42 2.23.06 1.27.07 1.65.07 4.85 0 3.2 0 3.58-.07 4.85a6.671 6.671 0 01-.42 2.23 3.892 3.892 0 01-2.27 2.27 6.671 6.671 0 01-2.23.42c-1.27.06-1.65.07-4.85.07-3.2 0-3.58 0-4.85-.07a6.671 6.671 0 01-2.23-.42 3.892 3.892 0 01-2.27-2.27 6.67 6.67 0 01-.42-2.23c-.06-1.27-.07-1.65-.07-4.85 0-3.2 0-3.58.07-4.85a6.67 6.67 0 01.42-2.23 3.89 3.89 0 012.27-2.27 6.67 6.67 0 012.23-.42c1.27-.06 1.65-.07 4.85-.07zM12 0C8.74 0 8.33 0 7.05.07a8.76 8.76 0 00-2.91.56A6.07 6.07 0 00.63 4.14a8.76 8.76 0 00-.56 2.91C0 8.33 0 8.74 0 12c0 3.26 0 3.67.07 4.95.02.995.21 1.979.56 2.91a6.07 6.07 0 003.51 3.51 8.76 8.76 0 002.91.56C8.33 24 8.74 24 12 24c3.26 0 3.67 0 4.95-.07a8.76 8.76 0 002.91-.56 6.07 6.07 0 003.51-3.51 8.762 8.762 0 00.56-2.86c.07-1.33.07-1.74.07-5s0-3.67-.07-4.95a8.76 8.76 0 00-.56-2.91A6.07 6.07 0 0019.86.63 8.76 8.76 0 0017 .07C15.67 0 15.26 0 12 0zm0 5.84a6.16 6.16 0 100 12.32 6.16 6.16 0 000-12.32zM12 16a4 4 0 110-8 4 4 0 010 8zm6.41-11.85a1.44 1.44 0 100 2.88 1.44 1.44 0 000-2.88z" fill="#FAF8F5"/></svg>