<svg viewBox="0 0 130 140" preserveAspectRatio="none" width="130" height="140" xmlns="http://www.w3.org/2000/svg"><style></style><g class="layer"><g id="svg_5"><path d="M65.3 63.6c-.2.5-.6.8-.9 1.1-.2.1-.3.2-.5.3-.2.1-.4.1-.5.1-.1 0-.3 0-.4-.1l-19.1-4.2c-.2-.1-.3-.1-.5-.3-.3-.2-.5-.4-.7-.8-.2-.3-.4-.7-.4-1.2l-1.9-7.9 2.1-1c.7-.3 1.3-.7 1.9-1.1v.1c.1.7.3 1.5.5 2.5.1.7.3 1.4.4 2.2.1.5.2 1.1.4 1.6.1.4.2.7.3 1 .1.2.2.5.2.7.1.2.1.3.2.5.1.1.1.2.2.3.1.2.2.3.4.5.1.1.2.1.3.2.1.1.3.1.4.1h.2l15.2-1.8s.1 0 .1.1c.1.1.2.1.3.3.2.2.4.5.5.8.3.5.6 1 .8 1.5.2.5.5 1.1.6 1.5.2.4.3.9.3 1.4 0 .6-.1 1.2-.4 1.6zm-40.1-5.1c-.1.6-.4 1.1-.7 1.5l-.5.5c-.2.1-.3.2-.5.3L4.4 65c-.1 0-.3.1-.4.1-.2 0-.4 0-.5-.1-.3-.1-.5-.2-.8-.5-.2-.2-.5-.5-.6-.9-.2-.5-.4-1-.4-1.6 0-.5.1-.9.2-1.3.2-.4.3-.9.6-1.4.2-.4.4-.8.5-1.1.1-.3.3-.5.4-.8.2-.4.4-.6.6-.8.1-.1.1-.1.2-.1l15.2 1.8h.2c.2 0 .3-.1.5-.1.1-.1.2-.1.3-.2.2-.1.3-.3.4-.5.1-.1.2-.3.2-.5.1-.3.3-.6.4-1 .2-.6.4-1.4.6-2.1.3-1.2.5-2.4.7-3.5l.3-1.5v-.1c.6.4 1.2.8 1.9 1.1l2.1 1-1.8 7.6zm-.3-54.1v-.3c0-.1 0-.3.1-.4.1-.2.1-.3.2-.4l.1-.1h.1l2-.4h.1c.1 0 .1.1.2.2s.2.2.2.4l1.6 5.9c-1 .5-2 1.1-3.1 1.5l-1.5-6.4zm14.3-1.7c.1-.2.2-.4.3-.5l.1-.1h.1l2 .4s.1 0 .1.1c.1.1.2.2.2.3.1.2.1.4.1.6v.3l-1.7 7.1c-1.1-.5-2.1-1-3.1-1.6.1-.1.1-.2.1-.3l1.8-6.3zm27.5 55.8l-.6-1.2c-.2-.3-.3-.6-.5-.9-.3-.4-.6-.8-.9-1.1-.2-.2-.4-.3-.6-.4-.2-.1-.5-.2-.8-.3h-.2l-14.9 1.7c-.1-.1-.1-.3-.2-.6-.2-.5-.4-1.2-.5-2-.3-1.1-.5-2.4-.7-3.6-.1-.6-.2-1.1-.3-1.6 0-.2-.1-.4-.1-.6 0-.2-.1-.4-.1-.5 0-.1 0-.1-.1-.2l.4-.4c1.1-1.2 1.9-2.6 2.3-4.2 0-.1 0-.2.1-.2L51.6 31c.1-.5-.2-1.1-.8-1.2-.5-.1-1.1.2-1.2.8L47 42v.2c-.3 1.2-.9 2.3-1.8 3.3s-2 1.8-3.4 2.4l-7.6 3.4c-.1.1-.3.1-.5.1s-.3 0-.5-.1l-7.3-3.4c-1-.5-2-1.1-2.7-1.8-.8-.7-1.4-1.5-1.8-2.4-.2-.5-.4-1-.5-1.6L14.8 15c.7.1 1.3.1 2 .1 2.8 0 5.6-.6 8.2-1.5 2.6-.9 5.1-2.2 7.4-3.6l1.2-.7 1.2.7c2.3 1.4 4.8 2.7 7.4 3.6 2.6 1 5.4 1.6 8.2 1.6.9 0 1.7-.1 2.6-.2l-1.2 5.3c-.1.5.2 1.1.8 1.2.5.1 1.1-.2 1.2-.8l1.5-6.8c.1-.3 0-.7-.3-.9-.2-.2-.6-.4-.9-.3l-.9.2c-1 .2-1.9.3-2.9.3-2.5 0-5.1-.6-7.6-1.5-.1 0-.2-.1-.3-.1l1.8-7.5c0-.2.1-.5.1-.7 0-.3 0-.7-.1-1-.1-.5-.4-.9-.7-1.2-.2-.2-.4-.3-.6-.5-.2-.1-.5-.2-.7-.3l-2-.4h-.4c-.3 0-.6.1-.9.2-.4.2-.7.4-1 .8-.3.3-.5.7-.6 1.2l-1.6 6.1-1.7-1c-.3-.2-.7-.2-1 0l-1.6 1L30 2.9c-.2-.6-.4-1.1-.9-1.5-.2-.2-.4-.3-.7-.5-.3-.1-.6-.2-.9-.2h-.4l-2 .4c-.3.1-.7.2-.9.4-.4.3-.7.7-.9 1.1-.2.4-.3.9-.3 1.4 0 .2 0 .5.1.7l1.6 6.7c-.1.1-.3.1-.4.1-2.5.9-5 1.4-7.5 1.4-1 0-2.1-.1-3.1-.3h-.2c-.3 0-.6.1-.8.4-.2.2-.3.6-.2.9l6.4 28.5c.2.7.4 1.4.7 2 .5 1 1.1 1.9 1.9 2.7v.1c-.1.3-.1.6-.2 1-.1.7-.3 1.6-.5 2.5-.1.7-.3 1.4-.4 2.1l-.3 1.5c-.1.3-.2.7-.3.9-.1.2-.1.4-.2.5 0 .1-.1.2-.1.2L4.6 54.2h-.2c-.2 0-.3.1-.5.1-.3.1-.5.3-.7.5l-.5.5c-.3.3-.5.7-.7 1.1l-.9 1.8c-.3.6-.5 1.2-.7 1.6-.2.7-.4 1.4-.4 2.1 0 .8.2 1.7.6 2.5.4.7.9 1.4 1.5 1.8.3.2.7.4 1 .5.4.1.8.2 1.2.2.3 0 .6 0 .9-.1l19.1-4.3h.1c.4-.1.8-.3 1.1-.5.5-.4.9-.8 1.3-1.4.3-.5.6-1.1.7-1.8l1.8-7.4 3.3 1.5c.4.2.9.3 1.3.3s.9-.1 1.3-.3l3.6-1.6 1.8 7.5c.2.9.5 1.7 1.1 2.3.3.3.6.6.9.8.3.2.7.4 1.1.5h.1l19.1 4.3c.3.1.6.1.9.1.4 0 .8-.1 1.2-.2.6-.2 1.1-.5 1.5-.9.4-.4.8-.9 1.1-1.5.4-.8.6-1.6.6-2.5 0-.7-.1-1.4-.4-2.1-.7-.1-.9-.6-1.1-1.1z" fill="#000" id="svg_1"/><path d="M38 30.3c-.1.2-.3.4-.5.5-.4.3-1 .6-1.7.8-.7.2-1.5.3-2.4.3-.7 0-1.3-.1-1.9-.2l-1.2-.3c-.5-.2-.9-.5-1.2-.7l-.3-.3c-.1-.1-.1-.2-.1-.3v-1.5h.1c.6.3 1.3.4 2.1.6.8.1 1.6.2 2.6.2.8 0 1.6-.1 2.4-.2.6-.1 1.1-.2 1.6-.3.3-.1.5-.2.8-.3V30c-.2.1-.2.2-.3.3zm-9.2-4.1c.1-.1.3-.2.6-.4.4-.2 1-.4 1.7-.5.7-.1 1.5-.2 2.3-.2.7 0 1.4.1 2.1.2.5.1.9.2 1.3.3.3.1.5.2.7.3.2.1.3.1.4.2.1.1.2.1.2.2H38c-.1.1-.3.2-.6.4-.4.2-1 .4-1.7.5-.7.1-1.5.2-2.3.2-.7 0-1.4-.1-2.1-.2-.5-.1-.9-.2-1.3-.3-.3-.1-.5-.2-.7-.3-.2-.1-.3-.1-.4-.2-.1 0-.1-.1-.1-.2-.1.1 0 .1 0 0zm11.3-.4c-.1-.3-.2-.5-.4-.8-.1-.2-.3-.3-.5-.5-.3-.2-.7-.4-1.1-.6-.6-.3-1.3-.4-2.1-.6-.8-.1-1.6-.2-2.6-.2-.8 0-1.6.1-2.4.2-.6.1-1.1.2-1.6.3-.4.1-.7.2-1 .4-.2.1-.4.2-.6.4-.3.2-.6.4-.8.7-.1.2-.2.3-.3.5-.1.2-.1.4-.1.6V30.1c0 .2 0 .3.1.5s.1.4.2.6c.3.5.6.8 1.1 1.2.6.5 1.4.8 2.3 1.1.9.2 1.9.4 3 .4.8 0 1.6-.1 2.3-.2.5-.1 1.1-.3 1.5-.4.7-.3 1.3-.6 1.8-1.1.3-.2.5-.5.7-.8.1-.2.2-.4.3-.7.1-.1.1-.3.1-.5V27v-.3-.4c.1-.2.1-.3.1-.5z" fill="#000" id="svg_2"/><path d="M40.6 40.6c0 .1-.1.2-.1.3-.1.2-.3.4-.5.6-.2.2-.5.4-.9.5l-5.4 2.4-5.2-2.4c-.4-.2-.7-.4-.9-.6-.2-.2-.4-.4-.5-.6 0-.1-.1-.2-.1-.2l-4.5-19.8c3.5-.7 7.2-2.1 10.9-4.2 4 2.2 7.8 3.7 11.6 4.4l-4.4 19.6zm5.7-21.3c-3.9-.6-8.1-2.2-12.4-4.6-.3-.2-.7-.2-1 0-4.1 2.3-8.1 3.8-11.8 4.4-.3 0-.5.2-.7.4-.2.2-.2.5-.1.8L25 41.1c.1.2.1.4.2.7.2.5.6.9 1 1.2.4.4.9.7 1.4.9l5.6 2.6c.3.1.6.1.8 0l5.8-2.6c.6-.3 1.2-.7 1.7-1.1.2-.2.4-.5.6-.7.2-.3.3-.6.4-.9v-.1l4.6-20.5c.1-.3 0-.6-.1-.8s-.4-.4-.7-.5z" fill="#000" id="svg_3"/><path d="M51.8 24.7c-.6 0-1 .5-1 1 0 .6.5 1 1 1 .6 0 1-.5 1-1s-.5-1-1-1z" id="svg_4"/></g></g></svg>