<svg fill="#fff" xmlns="http://www.w3.org/2000/svg" viewBox="0 0 345.82 345.82"><path d="M314.009 295.324H263.84c-2.263 0-4.381-1.211-5.566-3.225l-47.991-79.486L324.318 19.527a6.498 6.498 0 00-2.292-8.903l-16.46-9.72a6.499 6.499 0 00-8.902 2.292l-105.236 178.19-4.102-6.794a6.501 6.501 0 00-2.583-2.416l-12.583-6.496L78.051 5.553a6.505 6.505 0 00-3.972-2.999 6.506 6.506 0 00-4.929.69L50.814 14.036a6.501 6.501 0 00-2.307 8.896l94.196 160.275.243 13.878c.02 1.143.341 2.26.93 3.239l18.36 30.496-31.822 53.877c-4.849 8.212-13.786 13.314-23.323 13.314h-78.25c-7.516 0-13.63 6.11-13.63 13.62v20.21c0 7.516 6.114 13.63 13.63 13.63h82.67c12.528 0 24.267-6.704 30.637-17.494l38.916-65.884 42.587 70.737c4.716 8.014 13.423 12.993 22.722 12.993h67.638c9.154 0 16.602-7.448 16.602-16.602v-17.294c-.002-9.156-7.449-16.603-16.604-16.603zM249.976 119.84l-4.246 7.19-4.922-3.691 4.246-7.19 4.922 3.691zm1.729-14.953l4.451-7.537 4.922 3.692-4.451 7.536-4.922-3.691zm52.847-89.484l5.266 3.109-42.09 71.267-4.922-3.691 41.746-70.685zM234.156 134.6l4.922 3.691-36.428 61.681-3.59-5.946 35.096-59.426zM63.006 21.945l7.132-4.197 87.044 148.105-6.846 4.684-87.33-148.592zm-3.395 289.066v21.46h-9v-21.46h9zm-31.4 20.83v-20.21c0-.342.283-.62.63-.62h8.77v21.46h-8.77a.631.631 0 01-.63-.63zm102.742-10.474c-4.043 6.849-11.493 11.104-19.442 11.104h-38.9v-21.46h34.48c14.115 0 27.341-7.55 34.517-19.704l28.249-47.829 3.586 5.956-42.49 71.933zm103.868 4.813l-78.908-131.067-.219-12.49 9.006-6.162 12.446 6.425 69.96 115.871c3.474 5.902 9.885 9.568 16.733 9.568h28.192v24.498h-45.66c-4.713-.001-9.126-2.525-11.55-6.643zm82.79 3.04a3.606 3.606 0 01-3.602 3.602h-8.978v-24.498h8.978a3.606 3.606 0 013.602 3.602v17.294z"/></svg>