<svg xmlns="http://www.w3.org/2000/svg" viewBox="470 470 10 150" height="140" width="140" style="background:0 0" fill="#fff"><path d="M442.2 538.6c-.2-.3-.2-.6-.2-.9 0-.2 0-.3.1-.5l1.4-4.8c.1-.4.3-.6.6-.8.3-.2.6-.3 1-.3h.4l2.6.3-2.3 7.6-2.3.1c-.2 0-.4-.1-.6-.2-.3-.1-.6-.3-.7-.5zm18.9-44.3c0-.3.1-.7.3-1 .2-.3.5-.5.8-.6.2 0 .3-.1.5-.1.3 0 .6.1.9.3.3.2.5.4.6.8l2.4 6-2.7 2.2-2.7-7c-.1-.2-.1-.4-.1-.6zm16.9 8.2l2.7 2.6-4.8 12.6-1.9-4.9 4-10.3zm2.6-6.7l2.8 2.2-2 5.2-2.7-2.6 1.9-4.8zm3.2-7.9c.1-.2.3-.5.6-.7.3-.2.6-.3.9-.3.2 0 .3 0 .5.1.4.1.6.3.8.6.2.3.3.6.3 1 0 .2 0 .4-.1.6l-2.7 7-2.7-2.2 2.4-6.1zm-17.2 21l-2-5.2 2.8-2.2 1.9 4.8-2.7 2.6zm16.1 29.6c.6.4 1.3.6 2 .6.2 0 .4 0 .6-.1l12.8-1.5 2.2 7.3-18.9-.8h-.1-.1c-.3 0-.7-.1-.9-.3-.3-.2-.5-.4-.6-.8l-12.3-32.2 2.7-2.6 11.3 28.6c.2.9.7 1.4 1.3 1.8zm20-1.4h.3c.4 0 .7.1 1 .3.3.2.5.5.6.8l1.4 4.7c0 .2.1.3.1.5s0 .4-.1.6c-.1.3-.3.5-.5.7-.2.2-.5.3-.8.3l-2.3-.1-2.3-7.6 2.6-.2zm-59.3 4.2l2.9-.1h.3l7.1-.3c.5 0 .9-.5.9-1s-.5-.9-1-.9l-5.9.3 2.2-7.3 12.8 1.5c.2 0 .4.1.6.1.7 0 1.4-.2 2-.6.6-.4 1-1 1.3-1.6l3.2-8.2 2 5.2-3.5 9.2c-.1.3-.3.6-.6.8-.3.2-.6.3-.9.3h-.1-.1l-3.2.1c-.5 0-.9.5-.9 1s.5.9 1 .9l3.2-.1h.2c.7 0 1.4-.2 2-.6.6-.4 1-1 1.3-1.7l2.8-7.2 5 13c.3.7.7 1.3 1.3 1.7.6.4 1.3.6 2 .6h.2l23.3 1h.1c.5 0 .9-.2 1.3-.4.6-.3 1.1-.8 1.4-1.3.3-.6.5-1.2.5-1.9 0-.3 0-.7-.2-1l-1.4-4.7c-.2-.8-.7-1.4-1.3-1.8-.6-.4-1.3-.7-2.1-.7-.2 0-.4 0-.6.1l-17.4 2h-.3c-.3 0-.6-.1-.9-.3-.3-.2-.5-.4-.6-.8l-6.2-15.8 5.8-15.2 2.8-7.2 3.1-8.2c.2-.4.2-.8.2-1.3 0-.8-.2-1.5-.7-2.1-.4-.6-1.1-1.1-1.8-1.3-.3-.1-.7-.2-1-.2-.7 0-1.4.2-2 .6-.6.4-1.1 1-1.3 1.6l-2.6 6.6-2.6 6.6-3.9 9.8L466 493l-.9.4.9-.4c-.3-.7-.7-1.3-1.3-1.6-.6-.4-1.3-.6-2-.6-.3 0-.7 0-1 .2-.8.2-1.4.7-1.8 1.3-.4.6-.7 1.3-.7 2.1 0 .4.1.9.2 1.3l9.5 24.7-4 10.1c-.1.3-.3.6-.6.8-.3.2-.6.3-.9.3h-.4l-17.4-2c-.2 0-.4-.1-.6-.1-.8 0-1.5.3-2.1.7-.6.4-1.1 1.1-1.3 1.8l-1.4 4.7c-.1.3-.2.7-.2 1 0 .5.1.9.2 1.3.2.6.6 1.1 1.2 1.5.5.4 1.2.7 1.9.7 0 .1.1.1.1.1z"/><path d="M489.1 514.2c.7-.2 1.6-.4 2.6-.6 1-.1 2.1-.2 3.3-.2 1.1 0 2.2.1 3.1.2.7.1 1.4.2 2 .4.4.1.8.2 1.1.4.2.1.5.2.6.3.1.1.2.1.3.2l.2.2s-.1.1-.1.2c-.1.1-.2.2-.4.3-.3.2-.7.3-1.1.5-.7.2-1.6.4-2.6.6-1 .1-2.1.2-3.3.2-1.1 0-2.2-.1-3.1-.2-.7-.1-1.4-.2-2-.4-.4-.1-.8-.2-1.1-.4-.2-.1-.5-.2-.6-.3-.1-.1-.2-.1-.3-.2l-.2-.2s.1-.1.1-.2c.1-.1.2-.2.4-.3.3-.2.7-.3 1.1-.5zm13.2 7.6c-.1.1-.2.2-.4.3-.3.2-.7.3-1.1.5-.7.2-1.6.4-2.6.6-1 .1-2.1.2-3.2.2s-2.2-.1-3.2-.2c-.7-.1-1.4-.2-2-.4-.4-.1-.8-.2-1.2-.4-.2-.1-.5-.2-.6-.3-.1-.1-.2-.2-.3-.2l-.2-.2v-4.1c.2.1.3.2.5.2.9.3 1.9.6 3.1.8 1.2.2 2.5.3 3.9.3 1.2 0 2.3-.1 3.4-.2.8-.1 1.5-.2 2.2-.4.5-.1 1-.3 1.4-.4l.6-.3V521.8c-.1-.2-.2-.1-.3 0zm-15.2-8.8c-.2.1-.4.2-.6.4-.3.2-.5.4-.7.7-.1.1-.2.3-.2.5-.1.2-.1.4-.1.5v6.4c0 .2 0 .4.1.6.1.2.1.3.2.5.2.3.4.5.6.7.4.3.9.6 1.5.8.9.4 1.9.6 3.1.8 1.2.2 2.5.3 3.9.3 1.2 0 2.4-.1 3.4-.2.8-.1 1.5-.3 2.2-.4.5-.1 1-.3 1.4-.5.3-.1.6-.3.9-.4.2-.1.4-.2.6-.4.3-.2.5-.4.7-.7.1-.1.2-.3.2-.5.1-.2.1-.4.1-.5v-6c0-.2-.1-.4-.2-.5 0-.1 0-.3-.1-.4-.1-.2-.1-.3-.2-.5-.2-.3-.4-.5-.6-.7-.4-.3-.9-.6-1.5-.8-.9-.3-1.9-.6-3.1-.8-1.2-.2-2.5-.3-3.9-.3-1.2 0-2.3.1-3.4.2-.8.1-1.5.2-2.2.4-.5.1-1 .3-1.4.4-.1.1-.4.3-.7.4zM457.7 539.7c0 .5.4 1 1 1 .5 0 1-.4 1-1 0-.5-.4-1-1-1s-1 .4-1 1z"/></svg>